<svg xmlns="http://www.w3.org/2000/svg" xmlns:xlink="http://www.w3.org/1999/xlink" width="1080" zoomAndPan="magnify" viewBox="0 0 810 809.999993" height="1080" preserveAspectRatio="xMidYMid meet" version="1.0"><defs><clipPath id="id1"><path d="M 535.128906 237.277344 L 567 237.277344 L 567 240 L 535.128906 240 Z M 535.128906 237.277344 " clip-rule="nonzero"/></clipPath><clipPath id="id2"><path d="M 535.976562 239.402344 C 536.035156 239.398438 536.089844 239.398438 536.148438 239.394531 C 543.929688 238.996094 551.714844 238.632812 559.496094 238.25 C 561.957031 238.128906 564.417969 238.011719 566.878906 237.890625 C 566.878906 237.898438 566.878906 237.90625 566.875 237.914062 L 535.972656 239.425781 C 535.976562 239.417969 535.976562 239.410156 535.976562 239.402344 Z M 535.976562 239.402344 " clip-rule="nonzero"/></clipPath><clipPath id="id3"><path d="M 535.128906 229.09375 L 567.871094 229.09375 L 567.871094 240 L 535.128906 240 Z M 535.128906 229.09375 " clip-rule="nonzero"/></clipPath><clipPath id="id4"><path d="M 535.976562 239.402344 C 536.429688 235.878906 536.324219 233.261719 535.355469 231.40625 C 545.65625 230.902344 555.957031 230.398438 566.253906 229.894531 C 567.226562 231.75 567.332031 234.363281 566.878906 237.890625 C 561.761719 238.140625 556.648438 238.390625 551.53125 238.640625 C 546.347656 238.894531 541.164062 239.160156 535.976562 239.402344 Z M 535.976562 239.402344 " clip-rule="nonzero"/></clipPath><clipPath id="id5"><path d="M 535 229.09375 L 566.847656 229.09375 L 566.847656 232 L 535 232 Z M 535 229.09375 " clip-rule="nonzero"/></clipPath><clipPath id="id6"><path d="M 535.355469 231.40625 C 535.246094 231.199219 535.128906 231.007812 535.003906 230.820312 C 545.304688 230.316406 555.605469 229.8125 565.90625 229.308594 C 566.03125 229.492188 566.148438 229.6875 566.257812 229.894531 C 555.957031 230.398438 545.65625 230.902344 535.355469 231.40625 Z M 535.355469 231.40625 " clip-rule="nonzero"/></clipPath><clipPath id="id7"><path d="M 534.105469 228.070312 L 566 228.070312 L 566 231 L 534.105469 231 Z M 534.105469 228.070312 " clip-rule="nonzero"/></clipPath><clipPath id="id8"><path d="M 535.003906 230.820312 C 534.867188 230.621094 534.71875 230.4375 534.558594 230.257812 C 544.859375 229.753906 555.160156 229.25 565.460938 228.746094 C 565.621094 228.921875 565.769531 229.109375 565.90625 229.308594 C 555.605469 229.8125 545.304688 230.316406 535.003906 230.820312 Z M 535.003906 230.820312 " clip-rule="nonzero"/></clipPath><clipPath id="id9"><path d="M 527 226.027344 L 565.824219 226.027344 L 565.824219 231 L 527 231 Z M 527 226.027344 " clip-rule="nonzero"/></clipPath><clipPath id="id10"><path d="M 527.042969 227.707031 C 527.695312 227.671875 528.347656 227.640625 529 227.609375 C 534.203125 227.355469 539.410156 227.101562 544.617188 226.84375 C 545.8125 226.785156 547.40625 226.710938 548.605469 226.648438 C 550.523438 226.554688 552.445312 226.460938 554.363281 226.367188 C 554.910156 226.34375 555.640625 226.304688 556.1875 226.28125 C 556.714844 226.253906 557.417969 226.195312 557.945312 226.195312 C 558.097656 226.199219 558.246094 226.207031 558.394531 226.21875 C 561.851562 226.453125 564.109375 227.25 565.460938 228.746094 C 555.160156 229.25 544.859375 229.753906 534.558594 230.261719 C 533.207031 228.761719 530.949219 227.96875 527.492188 227.730469 C 527.34375 227.722656 527.191406 227.714844 527.042969 227.707031 Z M 527.042969 227.707031 " clip-rule="nonzero"/></clipPath><clipPath id="id11"><path d="M 493.171875 237.277344 L 567 237.277344 L 567 558.40625 L 493.171875 558.40625 Z M 493.171875 237.277344 " clip-rule="nonzero"/></clipPath><clipPath id="id12"><path d="M 523.441406 330.289062 C 527.535156 299.984375 531.671875 269.691406 523.441406 330.289062 C 523.441406 330.289062 523.441406 330.289062 535.972656 239.425781 L 554.34375 328.777344 C 554.34375 328.777344 554.34375 328.777344 566.875 237.914062 C 564.617188 253.796875 562.40625 269.6875 560.222656 285.585938 C 550.300781 284.972656 545.320312 284.664062 541.546875 284.578125 C 537.777344 284.492188 535.269531 284.613281 529.78125 284.878906 C 535.269531 284.613281 537.777344 284.492188 541.546875 284.578125 C 545.320312 284.664062 550.300781 284.972656 560.222656 285.585938 C 558.242188 299.976562 556.289062 314.375 554.34375 328.777344 C 551.730469 348.140625 549.402344 367.550781 546.753906 386.917969 C 542.703125 416.480469 538.355469 445.984375 534.402344 475.5625 C 531.523438 497.132812 528.652344 518.730469 526.585938 540.40625 C 525.824219 548.351562 525.40625 553.289062 524.132812 556.59375 C 513.832031 557.097656 503.53125 557.605469 493.230469 558.109375 C 494.503906 554.800781 494.917969 549.863281 495.683594 541.917969 C 497.746094 520.242188 500.621094 498.644531 503.5 477.074219 C 507.453125 447.496094 511.804688 417.992188 515.851562 388.429688 C 518.5 369.066406 520.828125 349.652344 523.441406 330.289062 Z M 523.441406 330.289062 " clip-rule="nonzero"/></clipPath><clipPath id="id13"><path d="M 454.289062 221.933594 L 558 221.933594 L 558 228 L 454.289062 228 Z M 454.289062 221.933594 " clip-rule="nonzero"/></clipPath><clipPath id="id14"><path d="M 463.519531 224.054688 C 460.515625 223.867188 457.566406 223.683594 454.648438 223.5 C 464.953125 222.996094 475.253906 222.492188 485.550781 221.988281 C 488.464844 222.171875 491.417969 222.355469 494.421875 222.542969 C 504.753906 223.183594 515.09375 223.804688 525.425781 224.398438 C 536.109375 225.015625 546.792969 225.605469 557.945312 226.191406 C 547.699219 226.695312 537.453125 227.195312 527.207031 227.695312 C 527.152344 227.699219 527.097656 227.703125 527.042969 227.707031 C 515.890625 227.117188 505.207031 226.527344 494.523438 225.914062 C 484.191406 225.316406 473.851562 224.695312 463.519531 224.054688 Z M 463.519531 224.054688 " clip-rule="nonzero"/></clipPath><clipPath id="id15"><path d="M 453 221 L 486 221 L 486 223.980469 L 453 223.980469 Z M 453 221 " clip-rule="nonzero"/></clipPath><clipPath id="id16"><path d="M 454.648438 223.5 C 454.132812 223.464844 453.617188 223.433594 453.105469 223.402344 C 463.441406 222.898438 473.773438 222.398438 484.109375 221.894531 C 484.589844 221.925781 485.070312 221.957031 485.550781 221.988281 C 475.253906 222.492188 464.953125 222.996094 454.648438 223.5 Z M 454.648438 223.5 " clip-rule="nonzero"/></clipPath><clipPath id="id17"><path d="M 412.332031 219 L 484.988281 219 L 484.988281 223.980469 L 412.332031 223.980469 Z M 412.332031 219 " clip-rule="nonzero"/></clipPath><clipPath id="id18"><path d="M 430.054688 221.910156 C 424.222656 221.527344 418.394531 221.136719 412.566406 220.742188 C 422.867188 220.238281 433.167969 219.734375 443.46875 219.230469 C 449.296875 219.625 455.125 220.011719 460.957031 220.398438 C 468.585938 220.902344 476.214844 221.394531 484.109375 221.894531 C 473.773438 222.398438 463.441406 222.898438 453.105469 223.402344 C 445.25 222.90625 437.648438 222.414062 430.054688 221.910156 Z M 430.054688 221.910156 " clip-rule="nonzero"/></clipPath><clipPath id="id19"><path d="M 396 218 L 444 218 L 444 220.914062 L 396 220.914062 Z M 396 218 " clip-rule="nonzero"/></clipPath><clipPath id="id20"><path d="M 396.90625 219.671875 C 397.027344 219.664062 397.027344 219.664062 427.808594 218.15625 C 427.816406 218.15625 427.824219 218.160156 427.828125 218.160156 C 433.042969 218.519531 438.253906 218.875 443.46875 219.230469 C 433.167969 219.734375 422.867188 220.238281 412.566406 220.742188 C 407.351562 220.386719 402.140625 220.03125 396.925781 219.671875 C 396.917969 219.671875 396.914062 219.671875 396.90625 219.671875 Z M 396.90625 219.671875 " clip-rule="nonzero"/></clipPath><clipPath id="id21"><path d="M 394 218 L 428 218 L 428 219.890625 L 394 219.890625 Z M 394 218 " clip-rule="nonzero"/></clipPath><clipPath id="id22"><path d="M 396.90625 219.671875 C 395.996094 219.625 395.164062 219.617188 394.398438 219.652344 L 425.300781 218.140625 C 426.066406 218.105469 426.898438 218.109375 427.808594 218.15625 C 397.199219 219.648438 397.175781 219.65625 397.15625 219.660156 C 397.070312 219.664062 396.988281 219.671875 396.90625 219.671875 Z M 396.90625 219.671875 " clip-rule="nonzero"/></clipPath><clipPath id="id23"><path d="M 387 262 L 532 262 L 532 272 L 387 272 Z M 387 262 " clip-rule="nonzero"/></clipPath><clipPath id="id24"><path d="M 531.410156 269.605469 L 500.507812 271.121094 C 461.9375 268.726562 424.589844 266.40625 387.25 264.089844 L 418.152344 262.578125 C 455.492188 264.894531 492.839844 267.210938 531.410156 269.605469 Z M 531.410156 269.605469 " clip-rule="nonzero"/></clipPath><clipPath id="id25"><path d="M 383 261 L 418.472656 261 L 418.472656 264.890625 L 383 264.890625 Z M 383 261 " clip-rule="nonzero"/></clipPath><clipPath id="id26"><path d="M 418.152344 262.578125 L 387.25 264.089844 C 385.882812 263.71875 384.523438 263.351562 383.15625 262.988281 L 414.058594 261.476562 C 415.425781 261.835938 416.789062 262.207031 418.152344 262.578125 Z M 418.152344 262.578125 " clip-rule="nonzero"/></clipPath><clipPath id="id27"><path d="M 383 219 L 421 219 L 421 263 L 383 263 Z M 383 219 " clip-rule="nonzero"/></clipPath><clipPath id="id28"><path d="M 394.171875 219.625 C 404.472656 219.121094 414.773438 218.617188 425.074219 218.113281 C 419.980469 218.363281 418.035156 220.835938 417.675781 227.648438 C 417.660156 228 417.644531 228.355469 417.625 228.707031 C 417.0625 239.664062 415.292969 250.550781 414.058594 261.476562 L 383.15625 262.988281 C 384.390625 252.066406 386.160156 241.175781 386.726562 230.222656 C 386.742188 229.867188 386.757812 229.515625 386.777344 229.160156 C 387.132812 222.347656 389.078125 219.875 394.171875 219.625 Z M 394.171875 219.625 " clip-rule="nonzero"/></clipPath><clipPath id="id29"><path d="M 389 218 L 423 218 L 423 222 L 389 222 Z M 389 218 " clip-rule="nonzero"/></clipPath><clipPath id="id30"><path d="M 394.171875 219.625 C 404.472656 219.121094 414.773438 218.617188 425.074219 218.113281 C 419.980469 218.363281 418.035156 220.835938 417.675781 227.648438 C 417.660156 228 417.644531 228.355469 417.625 228.707031 C 417.0625 239.664062 415.292969 250.550781 414.058594 261.476562 L 383.15625 262.988281 C 384.390625 252.066406 386.160156 241.175781 386.726562 230.222656 C 386.742188 229.867188 386.757812 229.515625 386.777344 229.160156 C 387.132812 222.347656 389.078125 219.875 394.171875 219.625 Z M 394.171875 219.625 " clip-rule="nonzero"/></clipPath><clipPath id="id31"><path d="M 391 218 L 425.636719 218 L 425.636719 221 L 391 221 Z M 391 218 " clip-rule="nonzero"/></clipPath><clipPath id="id32"><path d="M 394.171875 219.625 C 404.472656 219.121094 414.773438 218.617188 425.074219 218.113281 C 419.980469 218.363281 418.035156 220.835938 417.675781 227.648438 C 417.660156 228 417.644531 228.355469 417.625 228.707031 C 417.0625 239.664062 415.292969 250.550781 414.058594 261.476562 L 383.15625 262.988281 C 384.390625 252.066406 386.160156 241.175781 386.726562 230.222656 C 386.742188 229.867188 386.757812 229.515625 386.777344 229.160156 C 387.132812 222.347656 389.078125 219.875 394.171875 219.625 Z M 394.171875 219.625 " clip-rule="nonzero"/></clipPath><clipPath id="id33"><path d="M 382.65625 309.886719 L 416 309.886719 L 416 312.957031 L 382.65625 312.957031 Z M 382.65625 309.886719 " clip-rule="nonzero"/></clipPath><clipPath id="id34"><path d="M 413.8125 311.066406 L 382.910156 312.582031 C 383.609375 312.199219 384.3125 311.820312 385.007812 311.441406 L 415.914062 309.925781 C 415.214844 310.308594 414.511719 310.6875 413.8125 311.066406 Z M 413.8125 311.066406 " clip-rule="nonzero"/></clipPath><clipPath id="id35"><path d="M 380 360 L 472.707031 360 L 472.707031 366 L 380 366 Z M 380 360 " clip-rule="nonzero"/></clipPath><clipPath id="id36"><path d="M 472.292969 364.378906 L 441.394531 365.894531 C 420.175781 364.574219 400.285156 363.339844 380.390625 362.105469 L 411.292969 360.59375 C 431.183594 361.828125 451.078125 363.0625 472.292969 364.378906 Z M 472.292969 364.378906 " clip-rule="nonzero"/></clipPath><clipPath id="id37"><path d="M 378 359 L 411.308594 359 L 411.308594 363 L 378 363 Z M 378 359 " clip-rule="nonzero"/></clipPath><clipPath id="id38"><path d="M 411.292969 360.59375 L 380.390625 362.105469 C 379.6875 361.742188 378.984375 361.375 378.28125 361.007812 L 409.183594 359.496094 C 409.886719 359.863281 410.589844 360.226562 411.292969 360.59375 Z M 411.292969 360.59375 " clip-rule="nonzero"/></clipPath><clipPath id="id39"><path d="M 378 311 L 414 311 L 414 361.023438 L 378 361.023438 Z M 378 311 " clip-rule="nonzero"/></clipPath><clipPath id="id40"><path d="M 409.183594 359.496094 L 378.28125 361.007812 C 379.5625 349.597656 380.917969 338.1875 382.085938 326.75 C 382.3125 324.546875 382.453125 322.332031 382.5625 320.117188 C 382.664062 318.046875 382.742188 315.976562 382.84375 313.910156 C 382.863281 313.464844 382.886719 313.023438 382.910156 312.582031 L 413.816406 311.066406 C 413.789062 311.511719 413.765625 311.953125 413.746094 312.398438 C 413.644531 314.464844 413.566406 316.535156 413.464844 318.605469 C 413.355469 320.820312 413.21875 323.035156 412.992188 325.238281 C 411.820312 336.675781 410.464844 348.082031 409.183594 359.496094 Z M 409.183594 359.496094 " clip-rule="nonzero"/></clipPath><clipPath id="id41"><path d="M 374 407.046875 L 409 407.046875 L 409 486.816406 L 374 486.816406 Z M 374 407.046875 " clip-rule="nonzero"/></clipPath><clipPath id="id42"><path d="M 404.972656 484.890625 L 374.070312 486.402344 C 375.328125 461.128906 376.582031 435.851562 377.828125 410.578125 C 377.84375 410.054688 377.898438 409.53125 377.976562 409.011719 L 408.878906 407.5 C 408.800781 408.019531 408.746094 408.542969 408.730469 409.066406 C 407.484375 434.339844 406.230469 459.613281 404.972656 484.890625 Z M 404.972656 484.890625 " clip-rule="nonzero"/></clipPath><clipPath id="id43"><path d="M 374 484.769531 L 407.21875 484.769531 L 407.21875 487.839844 L 374 487.839844 Z M 374 484.769531 " clip-rule="nonzero"/></clipPath><clipPath id="id44"><path d="M 407.113281 485.742188 L 376.210938 487.253906 C 375.496094 486.96875 374.777344 486.683594 374.070312 486.402344 L 404.972656 484.890625 C 405.679688 485.175781 406.394531 485.457031 407.113281 485.742188 Z M 407.113281 485.742188 " clip-rule="nonzero"/></clipPath><clipPath id="id45"><path d="M 373.449219 515 L 493 515 L 493 537 L 373.449219 537 Z M 373.449219 515 " clip-rule="nonzero"/></clipPath><clipPath id="id46"><path d="M 404.738281 535.488281 L 373.835938 537 C 402.871094 530.492188 431.941406 524.167969 460.882812 517.179688 C 463.878906 516.460938 467.644531 512.226562 468.28125 508.996094 C 470.710938 496.6875 472.019531 484.113281 473.710938 471.640625 C 480.011719 425.023438 486.34375 378.414062 492.59375 331.792969 C 495.28125 311.777344 497.824219 291.734375 500.507812 271.121094 L 531.410156 269.605469 C 528.726562 290.222656 526.183594 310.265625 523.496094 330.28125 C 517.246094 376.902344 510.914062 423.507812 504.613281 470.128906 C 502.921875 482.601562 501.613281 495.171875 499.183594 507.480469 C 498.546875 510.714844 494.78125 514.949219 491.785156 515.667969 C 462.84375 522.65625 433.773438 528.980469 404.738281 535.488281 Z M 404.738281 535.488281 " clip-rule="nonzero"/></clipPath><clipPath id="id47"><path d="M 461 513 L 495 513 L 495 518 L 461 518 Z M 461 513 " clip-rule="nonzero"/></clipPath><clipPath id="id48"><path d="M 404.738281 535.488281 L 373.835938 537 C 402.871094 530.492188 431.941406 524.167969 460.882812 517.179688 C 463.878906 516.460938 467.644531 512.226562 468.28125 508.996094 C 470.710938 496.6875 472.019531 484.113281 473.710938 471.640625 C 480.011719 425.023438 486.34375 378.414062 492.59375 331.792969 C 495.28125 311.777344 497.824219 291.734375 500.507812 271.121094 L 531.410156 269.605469 C 528.726562 290.222656 526.183594 310.265625 523.496094 330.28125 C 517.246094 376.902344 510.914062 423.507812 504.613281 470.128906 C 502.921875 482.601562 501.613281 495.171875 499.183594 507.480469 C 498.546875 510.714844 494.78125 514.949219 491.785156 515.667969 C 462.84375 522.65625 433.773438 528.980469 404.738281 535.488281 Z M 404.738281 535.488281 " clip-rule="nonzero"/></clipPath><clipPath id="id49"><path d="M 463 269 L 532 269 L 532 516 L 463 516 Z M 463 269 " clip-rule="nonzero"/></clipPath><clipPath id="id50"><path d="M 404.738281 535.488281 L 373.835938 537 C 402.871094 530.492188 431.941406 524.167969 460.882812 517.179688 C 463.878906 516.460938 467.644531 512.226562 468.28125 508.996094 C 470.710938 496.6875 472.019531 484.113281 473.710938 471.640625 C 480.011719 425.023438 486.34375 378.414062 492.59375 331.792969 C 495.28125 311.777344 497.824219 291.734375 500.507812 271.121094 L 531.410156 269.605469 C 528.726562 290.222656 526.183594 310.265625 523.496094 330.28125 C 517.246094 376.902344 510.914062 423.507812 504.613281 470.128906 C 502.921875 482.601562 501.613281 495.171875 499.183594 507.480469 C 498.546875 510.714844 494.78125 514.949219 491.785156 515.667969 C 462.84375 522.65625 433.773438 528.980469 404.738281 535.488281 Z M 404.738281 535.488281 " clip-rule="nonzero"/></clipPath><clipPath id="id51"><path d="M 371.402344 535 L 405 535 L 405 537.953125 L 371.402344 537.953125 Z M 371.402344 535 " clip-rule="nonzero"/></clipPath><clipPath id="id52"><path d="M 402.519531 536.394531 L 371.617188 537.90625 C 372.367188 537.601562 373.101562 537.304688 373.835938 537.003906 L 404.738281 535.488281 C 404.003906 535.792969 403.269531 536.089844 402.519531 536.394531 Z M 402.519531 536.394531 " clip-rule="nonzero"/></clipPath><clipPath id="id53"><path d="M 368.332031 563 L 516 563 L 516 591 L 368.332031 591 Z M 368.332031 563 " clip-rule="nonzero"/></clipPath><clipPath id="id54"><path d="M 474.308594 567.375 C 486.644531 564.589844 491.117188 563.601562 493.230469 558.109375 C 503.53125 557.605469 513.832031 557.101562 524.132812 556.597656 C 522.019531 562.085938 517.546875 563.078125 505.210938 565.863281 C 474.210938 572.867188 443.277344 580.171875 412.296875 587.28125 C 408.625 588.121094 404.867188 588.550781 399.894531 589.378906 L 368.996094 590.890625 C 373.960938 590.0625 377.722656 589.632812 381.394531 588.792969 C 412.375 581.683594 443.308594 574.378906 474.308594 567.375 Z M 474.308594 567.375 " clip-rule="nonzero"/></clipPath><clipPath id="id55"><path d="M 484 560 L 522 560 L 522 565 L 484 565 Z M 484 560 " clip-rule="nonzero"/></clipPath><clipPath id="id56"><path d="M 474.308594 567.375 C 486.644531 564.589844 491.117188 563.601562 493.230469 558.109375 C 503.53125 557.605469 513.832031 557.101562 524.132812 556.597656 C 522.019531 562.085938 517.546875 563.078125 505.210938 565.863281 C 474.210938 572.867188 443.277344 580.171875 412.296875 587.28125 C 408.625 588.121094 404.867188 588.550781 399.894531 589.378906 L 368.996094 590.890625 C 373.960938 590.0625 377.722656 589.632812 381.394531 588.792969 C 412.375 581.683594 443.308594 574.378906 474.308594 567.375 Z M 474.308594 567.375 " clip-rule="nonzero"/></clipPath><clipPath id="id57"><path d="M 490 556.359375 L 524.894531 556.359375 L 524.894531 563 L 490 563 Z M 490 556.359375 " clip-rule="nonzero"/></clipPath><clipPath id="id58"><path d="M 474.308594 567.375 C 486.644531 564.589844 491.117188 563.601562 493.230469 558.109375 C 503.53125 557.605469 513.832031 557.101562 524.132812 556.597656 C 522.019531 562.085938 517.546875 563.078125 505.210938 565.863281 C 474.210938 572.867188 443.277344 580.171875 412.296875 587.28125 C 408.625 588.121094 404.867188 588.550781 399.894531 589.378906 L 368.996094 590.890625 C 373.960938 590.0625 377.722656 589.632812 381.394531 588.792969 C 412.375 581.683594 443.308594 574.378906 474.308594 567.375 Z M 474.308594 567.375 " clip-rule="nonzero"/></clipPath><clipPath id="id59"><path d="M 368.332031 536 L 403 536 L 403 591 L 368.332031 591 Z M 368.332031 536 " clip-rule="nonzero"/></clipPath><clipPath id="id60"><path d="M 399.898438 589.375 L 368.996094 590.890625 C 369.90625 572.59375 370.765625 555.25 371.617188 537.902344 L 402.519531 536.390625 C 401.667969 553.738281 400.804688 571.085938 399.898438 589.375 Z M 399.898438 589.375 " clip-rule="nonzero"/></clipPath><clipPath id="id61"><path d="M 327 356 L 409.261719 356 L 409.261719 361.023438 L 327 361.023438 Z M 327 356 " clip-rule="nonzero"/></clipPath><clipPath id="id62"><path d="M 409.183594 359.496094 L 378.28125 361.007812 C 361.449219 359.964844 344.605469 358.917969 327.121094 357.832031 L 358.023438 356.320312 C 375.507812 357.40625 392.351562 358.449219 409.183594 359.496094 Z M 409.183594 359.496094 " clip-rule="nonzero"/></clipPath><clipPath id="id63"><path d="M 323.308594 429.546875 L 405 429.546875 L 405 486.816406 L 323.308594 486.816406 Z M 323.308594 429.546875 " clip-rule="nonzero"/></clipPath><clipPath id="id64"><path d="M 404.972656 484.890625 L 374.070312 486.402344 C 360.128906 481.558594 346.261719 476.4375 332.207031 471.980469 C 326.515625 470.179688 324.539062 467.128906 324.621094 460.929688 C 324.746094 451.039062 323.984375 441.125 323.597656 431.089844 L 354.5 429.578125 C 354.886719 439.609375 355.648438 449.527344 355.523438 459.417969 C 355.441406 465.617188 357.417969 468.667969 363.105469 470.46875 C 377.164062 474.925781 391.03125 480.042969 404.972656 484.890625 Z M 404.972656 484.890625 " clip-rule="nonzero"/></clipPath><clipPath id="id65"><path d="M 271.121094 254 L 414.378906 254 L 414.378906 263 L 271.121094 263 Z M 271.121094 254 " clip-rule="nonzero"/></clipPath><clipPath id="id66"><path d="M 414.0625 261.476562 L 383.160156 262.988281 C 346.320312 260.699219 309.492188 258.414062 271.796875 256.074219 L 302.699219 254.5625 C 340.394531 256.902344 377.222656 259.1875 414.0625 261.476562 Z M 414.0625 261.476562 " clip-rule="nonzero"/></clipPath><clipPath id="id67"><path d="M 277.261719 426.476562 L 355 426.476562 L 355 431.589844 L 277.261719 431.589844 Z M 277.261719 426.476562 " clip-rule="nonzero"/></clipPath><clipPath id="id68"><path d="M 354.5 429.578125 L 323.597656 431.089844 C 307.996094 430.121094 293.230469 429.207031 277.863281 428.253906 L 308.765625 426.738281 C 324.132812 427.695312 338.898438 428.613281 354.5 429.578125 Z M 354.5 429.578125 " clip-rule="nonzero"/></clipPath><clipPath id="id69"><path d="M 207.675781 173 L 402 173 L 402 623.859375 L 207.675781 623.859375 Z M 207.675781 173 " clip-rule="nonzero"/></clipPath><clipPath id="id70"><path d="M 401.265625 622.105469 L 370.363281 623.617188 C 369.675781 623.652344 368.976562 623.644531 368.277344 623.601562 C 366.515625 623.492188 364.761719 623.144531 363.179688 622.578125 C 318.71875 606.707031 274.386719 590.417969 229.863281 574.789062 C 222.839844 572.324219 220.992188 568.808594 220.742188 561.355469 C 217.535156 461.859375 213.957031 362.375 210.546875 262.882812 C 209.558594 233.945312 208.824219 205.011719 207.941406 175.148438 L 238.84375 173.636719 C 239.726562 203.496094 240.460938 232.433594 241.449219 261.367188 C 244.859375 360.859375 248.4375 460.34375 251.648438 559.84375 C 251.894531 567.296875 253.742188 570.8125 260.765625 573.277344 C 305.292969 588.90625 349.621094 605.195312 394.082031 621.066406 C 395.660156 621.628906 397.417969 621.980469 399.179688 622.089844 C 399.878906 622.132812 400.578125 622.140625 401.265625 622.105469 Z M 401.265625 622.105469 " clip-rule="nonzero"/></clipPath></defs><g clip-path="url(#id1)"><g clip-path="url(#id2)"><path fill="#0b3b5f" d="M 566.875 237.914062 L 535.972656 239.425781 C 536.976562 231.617188 535.257812 228.261719 527.492188 227.730469 C 516.175781 227.132812 505.347656 226.535156 494.523438 225.914062 C 484.191406 225.316406 473.851562 224.695312 463.519531 224.054688 C 451.851562 223.328125 440.949219 222.628906 430.054688 221.910156 C 419.007812 221.183594 407.96875 220.4375 396.925781 219.671875 C 396.007812 219.625 395.164062 219.617188 394.390625 219.652344 L 425.292969 218.140625 C 426.066406 218.101562 426.910156 218.109375 427.828125 218.160156 C 438.875 218.921875 449.914062 219.667969 460.957031 220.398438 C 471.855469 221.117188 482.753906 221.816406 494.421875 222.542969 C 504.753906 223.183594 515.09375 223.804688 525.425781 224.398438 C 536.25 225.023438 547.082031 225.621094 558.394531 226.214844 C 566.160156 226.75 567.878906 230.105469 566.875 237.914062 " fill-opacity="1" fill-rule="nonzero"/></g></g><g clip-path="url(#id3)"><g clip-path="url(#id4)"><path fill="#0b3b5f" d="M 566.875 237.914062 L 535.972656 239.425781 C 536.976562 231.617188 535.257812 228.261719 527.492188 227.730469 C 516.175781 227.132812 505.347656 226.535156 494.523438 225.914062 C 484.191406 225.316406 473.851562 224.695312 463.519531 224.054688 C 451.851562 223.328125 440.949219 222.628906 430.054688 221.910156 C 419.007812 221.183594 407.96875 220.4375 396.925781 219.671875 C 396.007812 219.625 395.164062 219.617188 394.390625 219.652344 L 425.292969 218.140625 C 426.066406 218.101562 426.910156 218.109375 427.828125 218.160156 C 438.875 218.921875 449.914062 219.667969 460.957031 220.398438 C 471.855469 221.117188 482.753906 221.816406 494.421875 222.542969 C 504.753906 223.183594 515.09375 223.804688 525.425781 224.398438 C 536.25 225.023438 547.082031 225.621094 558.394531 226.214844 C 566.160156 226.75 567.878906 230.105469 566.875 237.914062 " fill-opacity="1" fill-rule="nonzero"/></g></g><g clip-path="url(#id5)"><g clip-path="url(#id6)"><path fill="#0b3b5f" d="M 566.875 237.914062 L 535.972656 239.425781 C 536.976562 231.617188 535.257812 228.261719 527.492188 227.730469 C 516.175781 227.132812 505.347656 226.535156 494.523438 225.914062 C 484.191406 225.316406 473.851562 224.695312 463.519531 224.054688 C 451.851562 223.328125 440.949219 222.628906 430.054688 221.910156 C 419.007812 221.183594 407.96875 220.4375 396.925781 219.671875 C 396.007812 219.625 395.164062 219.617188 394.390625 219.652344 L 425.292969 218.140625 C 426.066406 218.101562 426.910156 218.109375 427.828125 218.160156 C 438.875 218.921875 449.914062 219.667969 460.957031 220.398438 C 471.855469 221.117188 482.753906 221.816406 494.421875 222.542969 C 504.753906 223.183594 515.09375 223.804688 525.425781 224.398438 C 536.25 225.023438 547.082031 225.621094 558.394531 226.214844 C 566.160156 226.75 567.878906 230.105469 566.875 237.914062 " fill-opacity="1" fill-rule="nonzero"/></g></g><g clip-path="url(#id7)"><g clip-path="url(#id8)"><path fill="#0b3b5f" d="M 566.875 237.914062 L 535.972656 239.425781 C 536.976562 231.617188 535.257812 228.261719 527.492188 227.730469 C 516.175781 227.132812 505.347656 226.535156 494.523438 225.914062 C 484.191406 225.316406 473.851562 224.695312 463.519531 224.054688 C 451.851562 223.328125 440.949219 222.628906 430.054688 221.910156 C 419.007812 221.183594 407.96875 220.4375 396.925781 219.671875 C 396.007812 219.625 395.164062 219.617188 394.390625 219.652344 L 425.292969 218.140625 C 426.066406 218.101562 426.910156 218.109375 427.828125 218.160156 C 438.875 218.921875 449.914062 219.667969 460.957031 220.398438 C 471.855469 221.117188 482.753906 221.816406 494.421875 222.542969 C 504.753906 223.183594 515.09375 223.804688 525.425781 224.398438 C 536.25 225.023438 547.082031 225.621094 558.394531 226.214844 C 566.160156 226.75 567.878906 230.105469 566.875 237.914062 " fill-opacity="1" fill-rule="nonzero"/></g></g><g clip-path="url(#id9)"><g clip-path="url(#id10)"><path fill="#0b3b5f" d="M 566.875 237.914062 L 535.972656 239.425781 C 536.976562 231.617188 535.257812 228.261719 527.492188 227.730469 C 516.175781 227.132812 505.347656 226.535156 494.523438 225.914062 C 484.191406 225.316406 473.851562 224.695312 463.519531 224.054688 C 451.851562 223.328125 440.949219 222.628906 430.054688 221.910156 C 419.007812 221.183594 407.96875 220.4375 396.925781 219.671875 C 396.007812 219.625 395.164062 219.617188 394.390625 219.652344 L 425.292969 218.140625 C 426.066406 218.101562 426.910156 218.109375 427.828125 218.160156 C 438.875 218.921875 449.914062 219.667969 460.957031 220.398438 C 471.855469 221.117188 482.753906 221.816406 494.421875 222.542969 C 504.753906 223.183594 515.09375 223.804688 525.425781 224.398438 C 536.25 225.023438 547.082031 225.621094 558.394531 226.214844 C 566.160156 226.75 567.878906 230.105469 566.875 237.914062 " fill-opacity="1" fill-rule="nonzero"/></g></g><g clip-path="url(#id11)"><g clip-path="url(#id12)"><path fill="#0b3b5f" d="M 521.40625 560.527344 L 490.503906 562.039062 C 494.171875 559.011719 494.539062 553.863281 495.683594 541.917969 C 497.75 520.242188 500.621094 498.644531 503.5 477.074219 C 507.453125 447.496094 511.804688 417.992188 515.851562 388.429688 C 518.5 369.066406 520.828125 349.652344 523.441406 330.289062 C 527.535156 299.984375 531.675781 269.691406 535.972656 239.425781 L 566.878906 237.914062 C 562.574219 268.175781 558.4375 298.46875 554.34375 328.777344 C 551.730469 348.140625 549.402344 367.550781 546.753906 386.917969 C 542.707031 416.480469 538.355469 445.984375 534.402344 475.5625 C 531.523438 497.132812 528.652344 518.730469 526.585938 540.40625 C 525.441406 552.351562 525.074219 557.5 521.40625 560.527344 " fill-opacity="1" fill-rule="nonzero"/></g></g><g clip-path="url(#id13)"><g clip-path="url(#id14)"><path fill="#0b3b5f" d="M 566.875 237.914062 L 535.972656 239.425781 C 536.976562 231.617188 535.257812 228.261719 527.492188 227.730469 C 516.175781 227.132812 505.347656 226.535156 494.523438 225.914062 C 484.191406 225.316406 473.851562 224.695312 463.519531 224.054688 C 451.851562 223.328125 440.949219 222.628906 430.054688 221.910156 C 419.007812 221.183594 407.96875 220.4375 396.925781 219.671875 C 396.007812 219.625 395.164062 219.617188 394.390625 219.652344 L 425.292969 218.140625 C 426.066406 218.101562 426.910156 218.109375 427.828125 218.160156 C 438.875 218.921875 449.914062 219.667969 460.957031 220.398438 C 471.855469 221.117188 482.753906 221.816406 494.421875 222.542969 C 504.753906 223.183594 515.09375 223.804688 525.425781 224.398438 C 536.25 225.023438 547.082031 225.621094 558.394531 226.214844 C 566.160156 226.75 567.878906 230.105469 566.875 237.914062 " fill-opacity="1" fill-rule="nonzero"/></g></g><g clip-path="url(#id15)"><g clip-path="url(#id16)"><path fill="#0b3b5f" d="M 566.875 237.914062 L 535.972656 239.425781 C 536.976562 231.617188 535.257812 228.261719 527.492188 227.730469 C 516.175781 227.132812 505.347656 226.535156 494.523438 225.914062 C 484.191406 225.316406 473.851562 224.695312 463.519531 224.054688 C 451.851562 223.328125 440.949219 222.628906 430.054688 221.910156 C 419.007812 221.183594 407.96875 220.4375 396.925781 219.671875 C 396.007812 219.625 395.164062 219.617188 394.390625 219.652344 L 425.292969 218.140625 C 426.066406 218.101562 426.910156 218.109375 427.828125 218.160156 C 438.875 218.921875 449.914062 219.667969 460.957031 220.398438 C 471.855469 221.117188 482.753906 221.816406 494.421875 222.542969 C 504.753906 223.183594 515.09375 223.804688 525.425781 224.398438 C 536.25 225.023438 547.082031 225.621094 558.394531 226.214844 C 566.160156 226.75 567.878906 230.105469 566.875 237.914062 " fill-opacity="1" fill-rule="nonzero"/></g></g><g clip-path="url(#id17)"><g clip-path="url(#id18)"><path fill="#0b3b5f" d="M 566.875 237.914062 L 535.972656 239.425781 C 536.976562 231.617188 535.257812 228.261719 527.492188 227.730469 C 516.175781 227.132812 505.347656 226.535156 494.523438 225.914062 C 484.191406 225.316406 473.851562 224.695312 463.519531 224.054688 C 451.851562 223.328125 440.949219 222.628906 430.054688 221.910156 C 419.007812 221.183594 407.96875 220.4375 396.925781 219.671875 C 396.007812 219.625 395.164062 219.617188 394.390625 219.652344 L 425.292969 218.140625 C 426.066406 218.101562 426.910156 218.109375 427.828125 218.160156 C 438.875 218.921875 449.914062 219.667969 460.957031 220.398438 C 471.855469 221.117188 482.753906 221.816406 494.421875 222.542969 C 504.753906 223.183594 515.09375 223.804688 525.425781 224.398438 C 536.25 225.023438 547.082031 225.621094 558.394531 226.214844 C 566.160156 226.75 567.878906 230.105469 566.875 237.914062 " fill-opacity="1" fill-rule="nonzero"/></g></g><g clip-path="url(#id19)"><g clip-path="url(#id20)"><path fill="#0b3b5f" d="M 566.875 237.914062 L 535.972656 239.425781 C 536.976562 231.617188 535.257812 228.261719 527.492188 227.730469 C 516.175781 227.132812 505.347656 226.535156 494.523438 225.914062 C 484.191406 225.316406 473.851562 224.695312 463.519531 224.054688 C 451.851562 223.328125 440.949219 222.628906 430.054688 221.910156 C 419.007812 221.183594 407.96875 220.4375 396.925781 219.671875 C 396.007812 219.625 395.164062 219.617188 394.390625 219.652344 L 425.292969 218.140625 C 426.066406 218.101562 426.910156 218.109375 427.828125 218.160156 C 438.875 218.921875 449.914062 219.667969 460.957031 220.398438 C 471.855469 221.117188 482.753906 221.816406 494.421875 222.542969 C 504.753906 223.183594 515.09375 223.804688 525.425781 224.398438 C 536.25 225.023438 547.082031 225.621094 558.394531 226.214844 C 566.160156 226.75 567.878906 230.105469 566.875 237.914062 " fill-opacity="1" fill-rule="nonzero"/></g></g><g clip-path="url(#id21)"><g clip-path="url(#id22)"><path fill="#0b3b5f" d="M 566.875 237.914062 L 535.972656 239.425781 C 536.976562 231.617188 535.257812 228.261719 527.492188 227.730469 C 516.175781 227.132812 505.347656 226.535156 494.523438 225.914062 C 484.191406 225.316406 473.851562 224.695312 463.519531 224.054688 C 451.851562 223.328125 440.949219 222.628906 430.054688 221.910156 C 419.007812 221.183594 407.96875 220.4375 396.925781 219.671875 C 396.007812 219.625 395.164062 219.617188 394.390625 219.652344 L 425.292969 218.140625 C 426.066406 218.101562 426.910156 218.109375 427.828125 218.160156 C 438.875 218.921875 449.914062 219.667969 460.957031 220.398438 C 471.855469 221.117188 482.753906 221.816406 494.421875 222.542969 C 504.753906 223.183594 515.09375 223.804688 525.425781 224.398438 C 536.25 225.023438 547.082031 225.621094 558.394531 226.214844 C 566.160156 226.75 567.878906 230.105469 566.875 237.914062 " fill-opacity="1" fill-rule="nonzero"/></g></g><g clip-path="url(#id23)"><g clip-path="url(#id24)"><path fill="#1b5772" d="M 531.410156 269.605469 L 500.507812 271.121094 C 461.9375 268.726562 424.589844 266.40625 387.25 264.089844 L 418.152344 262.578125 C 455.492188 264.894531 492.839844 267.210938 531.410156 269.605469 " fill-opacity="1" fill-rule="nonzero"/></g></g><g clip-path="url(#id25)"><g clip-path="url(#id26)"><path fill="#1b5772" d="M 418.152344 262.578125 L 387.25 264.089844 C 385.882812 263.71875 384.523438 263.351562 383.15625 262.988281 L 414.058594 261.476562 C 415.425781 261.835938 416.789062 262.207031 418.152344 262.578125 " fill-opacity="1" fill-rule="nonzero"/></g></g><g clip-path="url(#id27)"><g clip-path="url(#id28)"><path fill="#1b5772" d="M 414.0625 261.476562 L 383.160156 262.988281 C 384.390625 252.066406 386.160156 241.175781 386.726562 230.222656 C 386.746094 229.867188 386.761719 229.515625 386.777344 229.160156 C 386.992188 225.054688 387.785156 222.523438 389.496094 221.105469 L 420.398438 219.59375 C 418.6875 221.011719 417.894531 223.539062 417.679688 227.648438 C 417.664062 228 417.648438 228.355469 417.628906 228.707031 C 417.0625 239.664062 415.292969 250.550781 414.0625 261.476562 " fill-opacity="1" fill-rule="nonzero"/></g></g><g clip-path="url(#id29)"><g clip-path="url(#id30)"><path fill="#1c5b76" d="M 420.398438 219.59375 L 389.496094 221.105469 C 390.082031 220.621094 390.777344 220.269531 391.589844 220.027344 L 422.492188 218.511719 C 421.679688 218.753906 420.984375 219.109375 420.398438 219.59375 " fill-opacity="1" fill-rule="nonzero"/></g></g><g clip-path="url(#id31)"><g clip-path="url(#id32)"><path fill="#1d5e7b" d="M 422.492188 218.511719 L 391.589844 220.023438 C 392.34375 219.800781 393.199219 219.671875 394.171875 219.625 L 425.074219 218.109375 C 424.101562 218.160156 423.246094 218.289062 422.492188 218.511719 " fill-opacity="1" fill-rule="nonzero"/></g></g><g clip-path="url(#id33)"><g clip-path="url(#id34)"><path fill="#1c5b76" d="M 413.8125 311.066406 L 382.910156 312.582031 C 383.609375 312.199219 384.3125 311.820312 385.007812 311.441406 L 415.914062 309.925781 C 415.214844 310.308594 414.511719 310.6875 413.8125 311.066406 " fill-opacity="1" fill-rule="nonzero"/></g></g><g clip-path="url(#id35)"><g clip-path="url(#id36)"><path fill="#1b5772" d="M 472.292969 364.378906 L 441.394531 365.894531 C 420.175781 364.574219 400.285156 363.339844 380.390625 362.105469 L 411.292969 360.59375 C 431.183594 361.828125 451.078125 363.0625 472.292969 364.378906 " fill-opacity="1" fill-rule="nonzero"/></g></g><path fill="#309dcc" d="M 415.914062 309.925781 C 436.703125 311.226562 457.488281 312.515625 479.355469 313.875 C 476.808594 332.074219 474.636719 347.632812 472.292969 364.378906 C 451.078125 363.0625 431.183594 361.828125 411.292969 360.59375 C 410.589844 360.226562 409.886719 359.863281 409.183594 359.496094 C 410.464844 348.082031 411.820312 336.675781 412.988281 325.238281 C 413.21875 323.035156 413.355469 320.820312 413.464844 318.605469 C 413.566406 316.535156 413.644531 314.464844 413.746094 312.398438 C 413.765625 311.953125 413.789062 311.511719 413.8125 311.066406 C 414.511719 310.6875 415.214844 310.308594 415.914062 309.925781 Z M 415.914062 309.925781 " fill-opacity="1" fill-rule="nonzero"/><g clip-path="url(#id37)"><g clip-path="url(#id38)"><path fill="#1b5772" d="M 411.292969 360.59375 L 380.390625 362.105469 C 379.6875 361.742188 378.984375 361.375 378.28125 361.007812 L 409.183594 359.496094 C 409.886719 359.863281 410.589844 360.226562 411.292969 360.59375 " fill-opacity="1" fill-rule="nonzero"/></g></g><g clip-path="url(#id39)"><g clip-path="url(#id40)"><path fill="#1b5772" d="M 409.183594 359.496094 L 378.28125 361.007812 C 379.5625 349.597656 380.917969 338.1875 382.085938 326.75 C 382.3125 324.546875 382.453125 322.332031 382.5625 320.117188 C 382.664062 318.046875 382.742188 315.976562 382.84375 313.910156 C 382.863281 313.464844 382.886719 313.023438 382.910156 312.582031 L 413.816406 311.066406 C 413.789062 311.511719 413.765625 311.953125 413.746094 312.398438 C 413.644531 314.464844 413.566406 316.535156 413.464844 318.605469 C 413.355469 320.820312 413.21875 323.035156 412.992188 325.238281 C 411.820312 336.675781 410.464844 348.082031 409.183594 359.496094 " fill-opacity="1" fill-rule="nonzero"/></g></g><g clip-path="url(#id41)"><g clip-path="url(#id42)"><path fill="#1b5772" d="M 404.972656 484.890625 L 374.070312 486.402344 C 375.328125 461.128906 376.582031 435.851562 377.828125 410.578125 C 377.84375 410.054688 377.898438 409.53125 377.976562 409.011719 L 408.878906 407.5 C 408.800781 408.019531 408.746094 408.542969 408.730469 409.066406 C 407.484375 434.339844 406.230469 459.613281 404.972656 484.890625 " fill-opacity="1" fill-rule="nonzero"/></g></g><g clip-path="url(#id43)"><g clip-path="url(#id44)"><path fill="#1b5772" d="M 407.113281 485.742188 L 376.210938 487.253906 C 375.496094 486.96875 374.777344 486.683594 374.070312 486.402344 L 404.972656 484.890625 C 405.679688 485.175781 406.394531 485.457031 407.113281 485.742188 " fill-opacity="1" fill-rule="nonzero"/></g></g><path fill="#309dcc" d="M 466.144531 411.054688 C 463.261719 432.753906 460.976562 451.78125 457.890625 470.65625 C 457.53125 472.882812 452.992188 475.171875 450.042969 475.902344 C 435.796875 479.46875 421.429688 482.511719 407.113281 485.742188 C 406.398438 485.457031 405.683594 485.171875 404.976562 484.890625 C 406.230469 459.613281 407.484375 434.339844 408.730469 409.066406 C 408.75 408.542969 408.800781 408.019531 408.878906 407.5 C 427.558594 408.660156 446.234375 409.816406 466.144531 411.054688 Z M 466.144531 411.054688 " fill-opacity="1" fill-rule="nonzero"/><g clip-path="url(#id45)"><g clip-path="url(#id46)"><path fill="#1d5e7b" d="M 404.738281 535.488281 L 373.835938 537 C 402.871094 530.492188 431.941406 524.167969 460.882812 517.179688 C 460.964844 517.160156 461.050781 517.136719 461.136719 517.113281 L 492.039062 515.597656 C 491.953125 515.625 491.867188 515.648438 491.785156 515.667969 C 462.84375 522.65625 433.773438 528.980469 404.738281 535.488281 " fill-opacity="1" fill-rule="nonzero"/></g></g><g clip-path="url(#id47)"><g clip-path="url(#id48)"><path fill="#1c5b76" d="M 492.039062 515.597656 L 461.136719 517.113281 C 462.054688 516.835938 463.03125 516.25 463.960938 515.480469 L 494.863281 513.96875 C 493.933594 514.738281 492.957031 515.324219 492.039062 515.597656 " fill-opacity="1" fill-rule="nonzero"/></g></g><g clip-path="url(#id49)"><g clip-path="url(#id50)"><path fill="#1b5772" d="M 494.863281 513.96875 L 463.960938 515.480469 C 466.023438 513.777344 467.855469 511.160156 468.28125 508.996094 C 470.710938 496.6875 472.019531 484.113281 473.710938 471.640625 C 480.011719 425.023438 486.34375 378.414062 492.59375 331.792969 C 495.28125 311.777344 497.824219 291.734375 500.507812 271.121094 L 531.410156 269.609375 C 528.726562 290.222656 526.183594 310.265625 523.496094 330.28125 C 517.246094 376.902344 510.914062 423.511719 504.613281 470.128906 C 502.921875 482.601562 501.613281 495.175781 499.183594 507.484375 C 498.757812 509.648438 496.925781 512.261719 494.863281 513.96875 " fill-opacity="1" fill-rule="nonzero"/></g></g><g clip-path="url(#id51)"><g clip-path="url(#id52)"><path fill="#1c5b76" d="M 402.519531 536.394531 L 371.617188 537.90625 C 372.367188 537.601562 373.101562 537.304688 373.835938 537.003906 L 404.738281 535.488281 C 404.003906 535.792969 403.269531 536.089844 402.519531 536.394531 " fill-opacity="1" fill-rule="nonzero"/></g></g><g clip-path="url(#id53)"><g clip-path="url(#id54)"><path fill="#0c4066" d="M 399.898438 589.378906 L 368.996094 590.890625 C 373.964844 590.0625 377.722656 589.632812 381.394531 588.792969 C 412.375 581.683594 443.308594 574.378906 474.308594 567.375 C 478.453125 566.4375 481.710938 565.707031 484.289062 564.9375 L 515.191406 563.425781 C 512.613281 564.191406 509.355469 564.925781 505.210938 565.863281 C 474.210938 572.867188 443.277344 580.171875 412.296875 587.28125 C 408.625 588.121094 404.867188 588.550781 399.898438 589.378906 " fill-opacity="1" fill-rule="nonzero"/></g></g><g clip-path="url(#id55)"><g clip-path="url(#id56)"><path fill="#0b3e62" d="M 515.191406 563.425781 L 484.289062 564.9375 C 487.058594 564.109375 489.042969 563.242188 490.503906 562.039062 L 521.40625 560.527344 C 519.945312 561.730469 517.960938 562.597656 515.191406 563.425781 " fill-opacity="1" fill-rule="nonzero"/></g></g><g clip-path="url(#id57)"><g clip-path="url(#id58)"><path fill="#0b3b5f" d="M 521.40625 560.527344 L 490.503906 562.039062 C 494.171875 559.011719 494.539062 553.863281 495.683594 541.917969 C 497.75 520.242188 500.621094 498.644531 503.5 477.074219 C 507.453125 447.496094 511.804688 417.992188 515.851562 388.429688 C 518.5 369.066406 520.828125 349.652344 523.441406 330.289062 C 527.535156 299.984375 531.675781 269.691406 535.972656 239.425781 L 566.878906 237.914062 C 562.574219 268.175781 558.4375 298.46875 554.34375 328.777344 C 551.730469 348.140625 549.402344 367.550781 546.753906 386.917969 C 542.707031 416.480469 538.355469 445.984375 534.402344 475.5625 C 531.523438 497.132812 528.652344 518.730469 526.585938 540.40625 C 525.441406 552.351562 525.074219 557.5 521.40625 560.527344 " fill-opacity="1" fill-rule="nonzero"/></g></g><g clip-path="url(#id59)"><g clip-path="url(#id60)"><path fill="#1b5772" d="M 399.898438 589.375 L 368.996094 590.890625 C 369.90625 572.59375 370.765625 555.25 371.617188 537.902344 L 402.519531 536.390625 C 401.667969 553.738281 400.804688 571.085938 399.898438 589.375 " fill-opacity="1" fill-rule="nonzero"/></g></g><g clip-path="url(#id61)"><g clip-path="url(#id62)"><path fill="#0b3b5f" d="M 409.183594 359.496094 L 378.28125 361.007812 C 361.449219 359.964844 344.605469 358.917969 327.121094 357.832031 L 358.023438 356.320312 C 375.507812 357.40625 392.351562 358.449219 409.183594 359.496094 " fill-opacity="1" fill-rule="nonzero"/></g></g><g clip-path="url(#id63)"><g clip-path="url(#id64)"><path fill="#0b3b5f" d="M 404.972656 484.890625 L 374.070312 486.402344 C 360.128906 481.558594 346.261719 476.4375 332.207031 471.980469 C 326.515625 470.179688 324.539062 467.128906 324.621094 460.929688 C 324.746094 451.039062 323.984375 441.125 323.597656 431.089844 L 354.5 429.578125 C 354.886719 439.609375 355.648438 449.527344 355.523438 459.417969 C 355.441406 465.617188 357.417969 468.667969 363.105469 470.46875 C 377.164062 474.925781 391.03125 480.042969 404.972656 484.890625 " fill-opacity="1" fill-rule="nonzero"/></g></g><g clip-path="url(#id65)"><g clip-path="url(#id66)"><path fill="#0b3b5f" d="M 414.0625 261.476562 L 383.160156 262.988281 C 346.320312 260.699219 309.492188 258.414062 271.796875 256.074219 L 302.699219 254.5625 C 340.394531 256.902344 377.222656 259.1875 414.0625 261.476562 " fill-opacity="1" fill-rule="nonzero"/></g></g><g clip-path="url(#id67)"><g clip-path="url(#id68)"><path fill="#0b3b5f" d="M 354.5 429.578125 L 323.597656 431.089844 C 307.996094 430.121094 293.230469 429.207031 277.863281 428.253906 L 308.765625 426.738281 C 324.132812 427.695312 338.898438 428.613281 354.5 429.578125 " fill-opacity="1" fill-rule="nonzero"/></g></g><path fill="#146aaa" d="M 238.84375 173.636719 C 360.769531 181.207031 481.363281 188.691406 602.949219 196.238281 C 600.167969 217.960938 597.59375 239.183594 594.726562 260.359375 C 587.4375 314.351562 579.953125 368.308594 572.675781 422.300781 C 565.539062 475.191406 558.695312 528.125 551.222656 580.964844 C 550.742188 584.363281 546.425781 589.015625 543.179688 589.792969 C 496.878906 600.8125 450.464844 611.324219 404.027344 621.738281 C 402.5 622.082031 400.839844 622.191406 399.179688 622.089844 C 397.417969 621.980469 395.660156 621.632812 394.082031 621.066406 C 349.621094 605.195312 305.292969 588.90625 260.765625 573.277344 C 253.746094 570.8125 251.894531 567.296875 251.648438 559.84375 C 248.4375 460.347656 244.859375 360.863281 241.449219 261.367188 C 240.460938 232.433594 239.726562 203.496094 238.84375 173.636719 Z M 566.875 237.914062 C 567.878906 230.105469 566.160156 226.75 558.394531 226.21875 C 547.078125 225.621094 536.25 225.023438 525.425781 224.398438 C 515.09375 223.804688 504.753906 223.183594 494.421875 222.542969 C 482.753906 221.820312 471.851562 221.117188 460.957031 220.398438 C 449.910156 219.671875 438.871094 218.921875 427.828125 218.160156 C 420.527344 217.78125 418.085938 219.929688 417.695312 227.289062 C 417.664062 228 417.644531 228.355469 417.628906 228.710938 C 417.0625 239.664062 415.292969 250.554688 414.0625 261.476562 C 377.222656 259.191406 340.394531 256.902344 302.699219 254.5625 C 303.363281 271.941406 303.957031 287.359375 304.609375 304.289062 C 341.402344 306.574219 377.609375 308.824219 413.8125 311.070312 C 413.789062 311.511719 413.765625 311.957031 413.746094 312.398438 C 413.644531 314.464844 413.566406 316.535156 413.464844 318.605469 C 413.355469 320.820312 413.21875 323.035156 412.992188 325.238281 C 411.820312 336.675781 410.464844 348.082031 409.183594 359.496094 C 392.351562 358.453125 375.507812 357.40625 358.027344 356.320312 C 358.417969 371.902344 358.835938 385.160156 359.054688 398.425781 C 359.164062 404.644531 361.203125 408.109375 367.105469 408.476562 C 367.507812 408.5 367.925781 408.511719 368.367188 408.507812 C 381.816406 408.390625 395.28125 408.847656 408.730469 409.066406 C 407.484375 434.34375 406.230469 459.617188 404.972656 484.894531 C 391.03125 480.046875 377.164062 474.929688 363.105469 470.46875 C 357.417969 468.671875 355.441406 465.617188 355.523438 459.417969 C 355.648438 449.527344 354.890625 439.613281 354.5 429.578125 C 338.898438 428.613281 324.132812 427.695312 308.765625 426.742188 C 309.460938 449.480469 310.394531 471.324219 310.664062 493.175781 C 310.757812 500.730469 313.644531 504.003906 320.257812 506.332031 C 347.773438 516.019531 375.113281 526.3125 402.523438 536.394531 C 401.667969 553.742188 400.804688 571.085938 399.898438 589.378906 C 404.867188 588.554688 408.625 588.125 412.300781 587.28125 C 443.277344 580.175781 474.214844 572.867188 505.210938 565.863281 C 524.976562 561.40625 524.5625 561.542969 526.585938 540.410156 C 528.652344 518.734375 531.523438 497.136719 534.402344 475.5625 C 538.355469 445.988281 542.707031 416.480469 546.753906 386.917969 C 549.402344 367.554688 551.730469 348.144531 554.34375 328.777344 C 558.4375 298.46875 562.574219 268.179688 566.875 237.914062 " fill-opacity="1" fill-rule="nonzero"/><path fill="#309dcc" d="M 557.90625 226.1875 C 566.160156 226.75 567.882812 230.105469 566.949219 237.363281 C 562.574219 268.175781 558.4375 298.46875 554.34375 328.777344 C 551.730469 348.140625 549.402344 367.554688 546.753906 386.917969 C 542.707031 416.476562 538.355469 445.984375 534.402344 475.5625 C 531.523438 497.132812 528.652344 518.730469 526.585938 540.40625 C 524.5625 561.542969 524.976562 561.402344 505.210938 565.859375 C 474.210938 572.867188 443.277344 580.171875 412.300781 587.28125 C 408.625 588.121094 404.867188 588.550781 399.898438 589.375 C 400.808594 571.085938 401.667969 553.738281 402.519531 536.390625 C 403.269531 536.085938 404.003906 535.792969 404.738281 535.488281 C 433.773438 528.976562 462.84375 522.652344 491.785156 515.667969 C 494.78125 514.949219 498.546875 510.714844 499.183594 507.480469 C 501.613281 495.171875 502.921875 482.601562 504.613281 470.128906 C 510.914062 423.507812 517.246094 376.902344 523.496094 330.28125 C 526.183594 310.265625 528.726562 290.222656 531.410156 269.605469 C 492.839844 267.210938 455.492188 264.894531 418.152344 262.578125 C 416.785156 262.207031 415.421875 261.835938 414.058594 261.472656 C 415.292969 250.550781 417.0625 239.664062 417.625 228.707031 C 417.644531 228.351562 417.660156 228 417.675781 227.644531 C 418.082031 219.925781 420.527344 217.777344 427.289062 218.125 C 438.871094 218.921875 449.914062 219.667969 460.957031 220.398438 C 471.851562 221.117188 482.753906 221.816406 493.652344 222.492188 C 504.757812 223.179688 515.089844 223.800781 525.425781 224.398438 C 536.253906 225.023438 547.082031 225.621094 557.90625 226.1875 Z M 557.90625 226.1875 " fill-opacity="1" fill-rule="nonzero"/><g clip-path="url(#id69)"><g clip-path="url(#id70)"><path fill="#0b3b5f" d="M 401.265625 622.105469 L 370.363281 623.617188 C 369.675781 623.652344 368.976562 623.644531 368.277344 623.601562 C 366.515625 623.492188 364.761719 623.144531 363.179688 622.578125 C 318.71875 606.707031 274.386719 590.417969 229.863281 574.789062 C 222.839844 572.324219 220.992188 568.808594 220.742188 561.355469 C 217.535156 461.859375 213.957031 362.375 210.546875 262.882812 C 209.558594 233.945312 208.824219 205.011719 207.941406 175.148438 L 238.84375 173.636719 C 239.726562 203.496094 240.460938 232.433594 241.449219 261.367188 C 244.859375 360.859375 248.4375 460.34375 251.648438 559.84375 C 251.894531 567.296875 253.742188 570.8125 260.765625 573.277344 C 305.292969 588.90625 349.621094 605.195312 394.082031 621.066406 C 395.660156 621.628906 397.417969 621.980469 399.179688 622.089844 C 399.878906 622.132812 400.578125 622.140625 401.265625 622.105469 " fill-opacity="1" fill-rule="nonzero"/></g></g></svg>