<svg xmlns="http://www.w3.org/2000/svg" xmlns:xlink="http://www.w3.org/1999/xlink" width="1080" zoomAndPan="magnify" viewBox="0 0 810 809.999993" height="1080" preserveAspectRatio="xMidYMid meet" version="1.0"><defs><clipPath id="id1"><path d="M 440 174 L 532 174 L 532 309.886719 L 440 309.886719 Z M 440 174 " clip-rule="nonzero"/></clipPath><clipPath id="id2"><path d="M 530.269531 294.4375 L 513.828125 309.371094 C 513.96875 308.585938 514.074219 308.152344 514.109375 307.707031 C 515.507812 289.683594 515.445312 271.503906 513.039062 253.179688 C 512.128906 246.207031 510.605469 239.222656 509.007812 232.300781 C 506.765625 222.652344 503.378906 213.285156 497.878906 204.683594 C 490.160156 192.601562 482.078125 188.589844 471.253906 189.171875 C 469.996094 189.238281 468.699219 189.371094 467.363281 189.554688 C 457.476562 190.941406 448.695312 194.976562 440.390625 199.875 L 456.832031 184.941406 C 465.136719 180.042969 473.917969 176.007812 483.804688 174.625 C 485.144531 174.4375 486.4375 174.304688 487.695312 174.238281 C 498.523438 173.65625 506.605469 177.667969 514.320312 189.75 C 519.824219 198.355469 523.207031 207.71875 525.449219 217.367188 C 527.046875 224.292969 528.574219 231.273438 529.484375 238.246094 C 531.882812 256.570312 531.949219 274.746094 530.550781 292.773438 C 530.515625 293.21875 530.410156 293.652344 530.269531 294.4375 Z M 530.269531 294.4375 " clip-rule="nonzero"/></clipPath><clipPath id="id3"><path d="M 534.105469 321.136719 L 656 321.136719 L 656 417 L 534.105469 417 Z M 534.105469 321.136719 " clip-rule="nonzero"/></clipPath><clipPath id="id4"><path d="M 651.960938 401.929688 L 635.519531 416.863281 C 642.320312 404.449219 640.519531 393.363281 629.953125 381.988281 C 623.027344 374.535156 614.914062 368.75 606.28125 363.710938 C 586.140625 351.960938 564.757812 344.488281 542.847656 338.832031 C 540.011719 338.097656 537.167969 337.460938 534.257812 336.757812 L 550.695312 321.824219 C 553.609375 322.53125 556.453125 323.164062 559.289062 323.898438 C 581.199219 329.554688 602.585938 337.027344 622.71875 348.777344 C 631.351562 353.816406 639.464844 359.601562 646.394531 367.054688 C 656.960938 378.429688 658.761719 389.515625 651.960938 401.929688 Z M 651.960938 401.929688 " clip-rule="nonzero"/></clipPath><clipPath id="id5"><path d="M 619.035156 401 L 652 401 L 652 436.703125 L 619.035156 436.703125 Z M 619.035156 401 " clip-rule="nonzero"/></clipPath><clipPath id="id6"><path d="M 636.210938 421.371094 C 630.730469 426.347656 625.25 431.324219 619.769531 436.304688 C 625.949219 430.691406 631.398438 424.382812 635.519531 416.863281 L 651.960938 401.929688 C 647.839844 409.449219 642.390625 415.757812 636.210938 421.371094 Z M 636.210938 421.371094 " clip-rule="nonzero"/></clipPath><clipPath id="id7"><path d="M 413 184.09375 L 457 184.09375 L 457 220.914062 L 413 220.914062 Z M 413 184.09375 " clip-rule="nonzero"/></clipPath><clipPath id="id8"><path d="M 413.214844 220.125 C 415.957031 217.632812 418.695312 215.148438 421.4375 212.65625 C 424.175781 210.167969 426.917969 207.679688 429.65625 205.191406 C 437.996094 197.617188 446.960938 190.777344 456.828125 184.941406 L 440.390625 199.875 C 430.519531 205.707031 421.554688 212.550781 413.214844 220.125 Z M 413.214844 220.125 " clip-rule="nonzero"/></clipPath><clipPath id="id9"><path d="M 461.449219 310 L 528.988281 310 L 528.988281 332 L 461.449219 332 Z M 461.449219 310 " clip-rule="nonzero"/></clipPath><clipPath id="id10"><path d="M 528.25 316.820312 L 511.808594 331.753906 C 494.789062 329.703125 478.507812 327.734375 461.894531 325.722656 L 478.335938 310.789062 C 494.953125 312.800781 511.230469 314.769531 528.25 316.820312 Z M 528.25 316.820312 " clip-rule="nonzero"/></clipPath><clipPath id="id11"><path d="M 369 187 L 414 187 L 414 232 L 369 232 Z M 369 187 " clip-rule="nonzero"/></clipPath><clipPath id="id12"><path d="M 397.089844 202.039062 C 402.570312 197.0625 408.050781 192.085938 413.53125 187.109375 C 406.621094 193.382812 400.105469 200.117188 393.863281 207.167969 C 391.132812 210.25 388.480469 213.414062 385.71875 216.621094 L 369.277344 231.554688 C 372.039062 228.347656 374.691406 225.183594 377.421875 222.101562 C 383.664062 215.050781 390.179688 208.316406 397.089844 202.039062 Z M 397.089844 202.039062 " clip-rule="nonzero"/></clipPath><clipPath id="id13"><path d="M 502 316.023438 L 528.988281 316.023438 L 528.988281 380 L 502 380 Z M 502 316.023438 " clip-rule="nonzero"/></clipPath><clipPath id="id14"><path d="M 518.449219 364.585938 L 502.007812 379.519531 C 505.261719 363.664062 508.457031 348.09375 511.808594 331.753906 L 528.25 316.820312 C 524.898438 333.164062 521.703125 348.730469 518.449219 364.585938 Z M 518.449219 364.585938 " clip-rule="nonzero"/></clipPath><clipPath id="id15"><path d="M 374 249 L 427.683594 249 L 427.683594 301.707031 L 374 301.707031 Z M 374 249 " clip-rule="nonzero"/></clipPath><clipPath id="id16"><path d="M 427.574219 286.089844 L 411.132812 301.023438 C 399.414062 288.320312 387.28125 276.253906 374.015625 264.390625 L 390.457031 249.457031 C 403.722656 261.320312 415.855469 273.386719 427.574219 286.089844 Z M 427.574219 286.089844 " clip-rule="nonzero"/></clipPath><clipPath id="id17"><path d="M 355.03125 233.183594 L 372.425781 233.183594 L 372.425781 249.546875 L 355.03125 249.546875 Z M 355.03125 233.183594 " clip-rule="nonzero"/></clipPath><clipPath id="id18"><path d="M 372.207031 234.113281 L 355.765625 249.046875 C 355.492188 248.703125 355.421875 248.558594 355.292969 248.46875 L 371.734375 233.535156 C 371.863281 233.625 371.933594 233.773438 372.207031 234.113281 Z M 372.207031 234.113281 " clip-rule="nonzero"/></clipPath><clipPath id="id19"><path d="M 566 439 L 652.804688 439 L 652.804688 495 L 566 495 Z M 566 439 " clip-rule="nonzero"/></clipPath><clipPath id="id20"><path d="M 652.058594 439.582031 C 646.578125 444.558594 641.097656 449.535156 635.617188 454.515625 C 635.148438 454.941406 634.675781 455.363281 634.199219 455.785156 C 619.441406 468.867188 602.464844 478.671875 584.410156 486.847656 C 579.03125 489.292969 573.492188 491.445312 568.023438 493.734375 C 567.363281 494.007812 566.707031 494.308594 566.015625 494.613281 L 582.457031 479.679688 C 583.148438 479.375 583.804688 479.074219 584.464844 478.800781 C 589.933594 476.511719 595.472656 474.359375 600.851562 471.917969 C 618.90625 463.738281 635.882812 453.933594 650.640625 440.851562 C 651.117188 440.433594 651.589844 440.007812 652.058594 439.582031 Z M 652.058594 439.582031 " clip-rule="nonzero"/></clipPath><clipPath id="id21"><path d="M 510 418.296875 L 552 418.296875 L 552 480 L 510 480 Z M 510 418.296875 " clip-rule="nonzero"/></clipPath><clipPath id="id22"><path d="M 551.613281 464.742188 L 535.167969 479.671875 C 527.539062 463.738281 519.359375 448.488281 510.320312 433.625 L 526.761719 418.691406 C 535.804688 433.554688 543.980469 448.804688 551.613281 464.742188 Z M 551.613281 464.742188 " clip-rule="nonzero"/></clipPath><clipPath id="id23"><path d="M 240.421875 186.140625 L 372 186.140625 L 372 248.527344 L 240.421875 248.527344 Z M 240.421875 186.140625 " clip-rule="nonzero"/></clipPath><clipPath id="id24"><path d="M 240.421875 206.699219 C 245.90625 201.722656 251.386719 196.742188 256.867188 191.765625 C 260.511719 188.453125 265.273438 186.761719 271.28125 186.4375 C 272.71875 186.359375 274.234375 186.363281 275.816406 186.4375 C 292.125 187.207031 307.289062 193.546875 322.140625 201.042969 C 339.769531 209.941406 356.101562 221.152344 371.734375 233.535156 L 355.292969 248.46875 C 339.660156 236.085938 323.328125 224.875 305.699219 215.976562 C 290.847656 208.480469 275.683594 202.140625 259.375 201.371094 C 257.789062 201.296875 256.28125 201.292969 254.839844 201.371094 C 248.832031 201.695312 244.070312 203.386719 240.421875 206.699219 Z M 240.421875 206.699219 " clip-rule="nonzero"/></clipPath><clipPath id="id25"><path d="M 319.214844 234 L 372.425781 234 L 372.425781 307.84375 L 319.214844 307.84375 Z M 319.214844 234 " clip-rule="nonzero"/></clipPath><clipPath id="id26"><path d="M 336.1875 292.292969 C 330.707031 297.273438 325.226562 302.25 319.746094 307.226562 C 320.464844 306.570312 321.101562 305.738281 321.695312 304.6875 C 329.15625 291.441406 336.921875 278.398438 344.78125 265.414062 C 348.175781 259.808594 352.0625 254.527344 355.761719 249.046875 L 372.207031 234.113281 C 368.503906 239.59375 364.617188 244.875 361.222656 250.484375 C 353.363281 263.464844 345.597656 276.507812 338.136719 289.753906 C 337.542969 290.804688 336.90625 291.640625 336.1875 292.292969 Z M 336.1875 292.292969 " clip-rule="nonzero"/></clipPath><clipPath id="id27"><path d="M 335 309 L 510 309 L 510 495 L 335 495 Z M 335 309 " clip-rule="nonzero"/></clipPath><clipPath id="id28"><path d="M 475.160156 479.683594 C 469.679688 484.660156 464.199219 489.640625 458.71875 494.617188 C 459.171875 494.207031 459.542969 493.65625 459.882812 492.945312 C 472.695312 465.8125 483.890625 437.890625 493.101562 408.996094 C 493.566406 407.558594 493.371094 406.515625 492.484375 405.1875 C 474.46875 378.105469 455.097656 351.984375 434.144531 326.984375 C 432.675781 325.238281 431.183594 324.535156 429.171875 324.546875 C 419.257812 324.621094 409.296875 324.378906 399.4375 324.800781 C 396.730469 324.917969 394.027344 325.054688 391.328125 325.199219 C 380.027344 325.808594 368.757812 326.628906 357.480469 327.441406 C 351.039062 327.90625 344.667969 328.789062 338.257812 329.445312 C 337.105469 329.558594 336.226562 329.910156 335.519531 330.550781 C 341 325.574219 346.480469 320.597656 351.960938 315.617188 C 352.667969 314.976562 353.546875 314.625 354.699219 314.511719 C 361.109375 313.855469 367.480469 312.972656 373.925781 312.507812 C 385.199219 311.695312 396.46875 310.875 407.769531 310.265625 C 410.472656 310.121094 413.171875 309.988281 415.878906 309.867188 C 425.742188 309.445312 435.699219 309.6875 445.617188 309.613281 C 447.628906 309.605469 449.121094 310.304688 450.585938 312.050781 C 471.539062 337.054688 490.910156 363.171875 508.925781 390.253906 C 509.808594 391.582031 510.007812 392.625 509.542969 394.0625 C 500.332031 422.957031 489.136719 450.882812 476.324219 478.011719 C 475.988281 478.726562 475.617188 479.273438 475.160156 479.683594 Z M 475.160156 479.683594 " clip-rule="nonzero"/></clipPath><clipPath id="id29"><path d="M 474 487 L 580 487 L 580 586 L 474 586 Z M 474 487 " clip-rule="nonzero"/></clipPath><clipPath id="id30"><path d="M 474.71875 517.652344 C 480.199219 512.675781 485.679688 507.699219 491.15625 502.71875 C 492.054688 501.90625 493.144531 501.472656 494.648438 501.242188 C 503.992188 499.773438 513.347656 498.304688 522.527344 496.269531 C 534.875 493.519531 547.074219 490.265625 559.320312 487.183594 C 559.628906 487.105469 559.902344 487.058594 560.144531 487.046875 C 561.105469 486.992188 561.628906 487.484375 562.160156 488.839844 C 567.96875 503.757812 573.007812 518.792969 576.039062 534.335938 C 578.363281 546.328125 579.269531 558.246094 579.777344 570.230469 L 563.335938 585.164062 C 562.828125 573.179688 561.921875 561.261719 559.597656 549.269531 C 556.566406 533.726562 551.523438 518.6875 545.71875 503.773438 C 545.191406 502.417969 544.664062 501.925781 543.703125 501.980469 C 543.460938 501.992188 543.1875 502.039062 542.882812 502.117188 C 530.632812 505.195312 518.4375 508.449219 506.085938 511.199219 C 496.90625 513.238281 487.550781 514.707031 478.207031 516.175781 C 476.703125 516.40625 475.609375 516.839844 474.71875 517.652344 Z M 474.71875 517.652344 " clip-rule="nonzero"/></clipPath><clipPath id="id31"><path d="M 551 570 L 580 570 L 580 620.792969 L 551 620.792969 Z M 551 570 " clip-rule="nonzero"/></clipPath><clipPath id="id32"><path d="M 567.515625 605.289062 C 562.035156 610.265625 556.554688 615.246094 551.074219 620.222656 C 551.402344 619.925781 551.714844 619.601562 552.015625 619.253906 C 554.773438 616.03125 557.21875 612.421875 559.195312 608.621094 C 562.882812 601.507812 563.691406 593.53125 563.335938 585.164062 L 579.777344 570.230469 C 580.128906 578.597656 579.324219 586.574219 575.636719 593.6875 C 573.664062 597.492188 571.214844 601.097656 568.457031 604.320312 C 568.15625 604.667969 567.84375 604.992188 567.515625 605.289062 Z M 567.515625 605.289062 " clip-rule="nonzero"/></clipPath><clipPath id="id33"><path d="M 348.890625 359 L 448 359 L 448 461 L 348.890625 461 Z M 348.890625 359 " clip-rule="nonzero"/></clipPath><clipPath id="id34"><path d="M 447.484375 434.511719 C 442.003906 439.488281 436.523438 444.464844 431.042969 449.441406 C 424.066406 455.777344 414.917969 459.71875 404.71875 460.265625 C 404.578125 460.273438 404.441406 460.28125 404.304688 460.285156 C 378.832031 461.660156 353.714844 442.03125 349.539062 414.414062 C 347.085938 398.148438 352.625 383.929688 362.769531 374.71875 L 379.210938 359.785156 C 369.066406 368.996094 363.527344 383.214844 365.980469 399.480469 C 370.160156 427.101562 395.273438 446.726562 420.746094 445.355469 C 420.886719 445.347656 421.023438 445.339844 421.160156 445.332031 C 431.359375 444.785156 440.507812 440.847656 447.484375 434.511719 Z M 447.484375 434.511719 " clip-rule="nonzero"/></clipPath><clipPath id="id35"><path d="M 259 319.09375 L 323 319.09375 L 323 345.683594 L 259 345.683594 Z M 259 319.09375 " clip-rule="nonzero"/></clipPath><clipPath id="id36"><path d="M 322.929688 319.140625 L 306.484375 334.074219 C 290.886719 337.742188 275.59375 341.347656 259.550781 345.121094 L 275.992188 330.1875 C 292.035156 326.417969 307.332031 322.808594 322.929688 319.140625 Z M 322.929688 319.140625 " clip-rule="nonzero"/></clipPath><clipPath id="id37"><path d="M 207.675781 173 L 246 173 L 246 330.34375 L 207.675781 330.34375 Z M 207.675781 173 " clip-rule="nonzero"/></clipPath><clipPath id="id38"><path d="M 224.117188 188.753906 C 229.597656 183.773438 235.082031 178.796875 240.5625 173.820312 C 235.121094 178.757812 231.242188 185.25 228.617188 192.960938 C 223.867188 206.902344 223.460938 221.734375 225.070312 236.804688 C 226.027344 245.851562 227.785156 254.910156 229.578125 263.929688 C 232.285156 277.488281 236.644531 290.742188 241.511719 303.867188 C 242.929688 307.6875 244.394531 311.492188 245.863281 315.378906 L 229.421875 330.3125 C 227.953125 326.425781 226.488281 322.621094 225.070312 318.800781 C 220.203125 305.675781 215.839844 292.421875 213.136719 278.859375 C 211.34375 269.84375 209.585938 260.785156 208.628906 251.738281 C 207.019531 236.667969 207.425781 221.835938 212.175781 207.890625 C 214.800781 200.183594 218.679688 193.691406 224.117188 188.753906 Z M 224.117188 188.753906 " clip-rule="nonzero"/></clipPath><clipPath id="id39"><path d="M 283.398438 319.09375 L 323 319.09375 L 323 391.703125 L 283.398438 391.703125 Z M 283.398438 319.09375 " clip-rule="nonzero"/></clipPath><clipPath id="id40"><path d="M 300.171875 376.21875 L 283.730469 391.152344 C 291.394531 371.914062 298.832031 353.269531 306.484375 334.074219 L 322.929688 319.140625 C 315.273438 338.335938 307.835938 356.980469 300.171875 376.21875 Z M 300.171875 376.21875 " clip-rule="nonzero"/></clipPath><clipPath id="id41"><path d="M 420.519531 505.226562 L 462.472656 505.226562 L 462.472656 561 L 420.519531 561 Z M 420.519531 505.226562 " clip-rule="nonzero"/></clipPath><clipPath id="id42"><path d="M 437.300781 546.066406 L 420.859375 561 C 429.921875 547.859375 438.230469 534.597656 445.65625 520.640625 L 462.097656 505.710938 C 454.675781 519.664062 446.363281 532.929688 437.300781 546.066406 Z M 437.300781 546.066406 " clip-rule="nonzero"/></clipPath><clipPath id="id43"><path d="M 383 505.226562 L 462.472656 505.226562 L 462.472656 524.65625 L 383 524.65625 Z M 383 505.226562 " clip-rule="nonzero"/></clipPath><clipPath id="id44"><path d="M 462.097656 505.710938 L 445.65625 520.640625 C 424.710938 521.769531 404.125 522.878906 383.105469 524.011719 L 399.546875 509.078125 C 420.566406 507.945312 441.152344 506.835938 462.097656 505.710938 Z M 462.097656 505.710938 " clip-rule="nonzero"/></clipPath><clipPath id="id45"><path d="M 426.660156 579.882812 L 586 579.882812 L 586 647.382812 L 426.660156 647.382812 Z M 426.660156 579.882812 " clip-rule="nonzero"/></clipPath><clipPath id="id46"><path d="M 585.671875 621.792969 C 580.1875 626.769531 574.707031 631.746094 569.230469 636.726562 C 566.429688 639.265625 563.199219 641.429688 559.472656 643.140625 C 553.996094 645.65625 548.167969 646.949219 542.078125 647.273438 C 540.128906 647.382812 538.152344 647.386719 536.152344 647.304688 C 515.453125 646.425781 496.214844 638.632812 477.46875 628.738281 C 460.335938 619.707031 444.351562 608.691406 429.097656 596.460938 C 428.402344 595.90625 427.707031 595.375 426.992188 594.855469 L 443.433594 579.921875 C 444.148438 580.445312 444.847656 580.972656 445.542969 581.527344 C 460.792969 593.757812 476.777344 604.773438 493.910156 613.804688 C 512.660156 623.699219 531.898438 631.492188 552.59375 632.371094 C 554.59375 632.453125 556.574219 632.445312 558.519531 632.34375 C 564.613281 632.015625 570.441406 630.726562 575.914062 628.207031 C 579.640625 626.492188 582.871094 624.332031 585.671875 621.792969 Z M 585.671875 621.792969 " clip-rule="nonzero"/></clipPath><clipPath id="id47"><path d="M 423.589844 579.882812 L 444 579.882812 L 444 598 L 423.589844 598 Z M 423.589844 579.882812 " clip-rule="nonzero"/></clipPath><clipPath id="id48"><path d="M 423.820312 597.449219 C 429.300781 592.472656 434.78125 587.496094 440.261719 582.515625 C 441.253906 581.617188 442.300781 580.746094 443.433594 579.921875 L 426.992188 594.855469 C 425.859375 595.679688 424.808594 596.550781 423.820312 597.449219 Z M 423.820312 597.449219 " clip-rule="nonzero"/></clipPath><clipPath id="id49"><path d="M 292 430.566406 L 348.890625 430.566406 L 348.890625 500 L 292 500 Z M 292 430.566406 " clip-rule="nonzero"/></clipPath><clipPath id="id50"><path d="M 348.753906 484.664062 L 332.3125 499.597656 C 318.988281 481.734375 305.855469 464.128906 292.183594 445.796875 L 308.625 430.867188 C 322.300781 449.195312 335.429688 466.800781 348.753906 484.664062 Z M 348.753906 484.664062 " clip-rule="nonzero"/></clipPath><clipPath id="id51"><path d="M 401.078125 563.519531 L 424.613281 563.519531 L 424.613281 586 L 401.078125 586 Z M 401.078125 563.519531 " clip-rule="nonzero"/></clipPath><clipPath id="id52"><path d="M 417.753906 570.980469 L 401.3125 585.914062 C 403.359375 583.488281 405.4375 581.078125 407.566406 578.601562 L 424.007812 563.667969 C 421.878906 566.148438 419.804688 568.554688 417.753906 570.980469 Z M 417.753906 570.980469 " clip-rule="nonzero"/></clipPath><clipPath id="id53"><path d="M 384.703125 570.679688 L 418 570.679688 L 418 603.40625 L 384.703125 603.40625 Z M 384.703125 570.679688 " clip-rule="nonzero"/></clipPath><clipPath id="id54"><path d="M 401.15625 588.230469 C 395.675781 593.207031 390.195312 598.1875 384.714844 603.164062 C 390.597656 597.820312 396.121094 592.050781 401.3125 585.914062 L 417.753906 570.980469 C 412.5625 577.117188 407.039062 582.886719 401.15625 588.230469 Z M 401.15625 588.230469 " clip-rule="nonzero"/></clipPath><clipPath id="id55"><path d="M 173 337 L 255.769531 337 L 255.769531 389.660156 L 173 389.660156 Z M 173 337 " clip-rule="nonzero"/></clipPath><clipPath id="id56"><path d="M 173.148438 389.027344 C 178.628906 384.050781 184.109375 379.074219 189.589844 374.09375 C 190.199219 373.542969 190.816406 372.992188 191.4375 372.449219 C 207.15625 358.722656 225.566406 349.203125 245 341.304688 C 248.320312 339.957031 251.699219 338.726562 255.308594 337.355469 L 238.867188 352.289062 C 235.257812 353.664062 231.875 354.890625 228.558594 356.238281 C 209.125 364.136719 190.714844 373.65625 174.996094 387.382812 C 174.375 387.925781 173.757812 388.472656 173.148438 389.027344 Z M 173.148438 389.027344 " clip-rule="nonzero"/></clipPath><clipPath id="id57"><path d="M 238.375 337 L 291.585938 337 L 291.585938 487.839844 L 238.375 487.839844 Z M 238.375 337 " clip-rule="nonzero"/></clipPath><clipPath id="id58"><path d="M 276.792969 472.734375 L 260.351562 487.664062 C 263.722656 464.828125 268.753906 442.53125 274.953125 420.601562 C 275.203125 419.710938 274.875 418.320312 274.332031 417.433594 C 261.660156 396.996094 250.289062 375.933594 239.984375 354.355469 C 239.664062 353.679688 239.269531 353.027344 238.867188 352.289062 L 255.308594 337.355469 C 255.710938 338.097656 256.109375 338.746094 256.429688 339.421875 C 266.730469 361.003906 278.101562 382.058594 290.773438 402.5 C 291.320312 403.386719 291.648438 404.777344 291.394531 405.667969 C 285.195312 427.597656 280.167969 449.894531 276.792969 472.734375 Z M 276.792969 472.734375 " clip-rule="nonzero"/></clipPath><clipPath id="id59"><path d="M 259.863281 472.5 L 277 472.5 L 277 489.886719 L 259.863281 489.886719 Z M 259.863281 472.5 " clip-rule="nonzero"/></clipPath><clipPath id="id60"><path d="M 276.355469 474.679688 L 259.914062 489.613281 C 260.09375 488.808594 260.265625 488.246094 260.351562 487.667969 L 276.792969 472.734375 C 276.710938 473.316406 276.535156 473.875 276.355469 474.679688 Z M 276.355469 474.679688 " clip-rule="nonzero"/></clipPath><clipPath id="id61"><path d="M 280 502 L 424.613281 502 L 424.613281 578.859375 L 280 578.859375 Z M 280 502 " clip-rule="nonzero"/></clipPath><clipPath id="id62"><path d="M 424.007812 563.667969 L 407.566406 578.601562 C 406.886719 577.9375 406.453125 577.480469 405.996094 577.042969 C 399.339844 570.746094 392.476562 564.664062 386.070312 558.121094 C 375.382812 547.207031 365.007812 535.996094 354.441406 524.972656 C 353.757812 524.261719 352.589844 523.667969 351.675781 523.605469 C 345.675781 523.21875 339.683594 523.230469 333.679688 522.660156 C 318.03125 521.1875 302.378906 519.488281 286.726562 517.847656 C 284.625 517.632812 282.519531 517.285156 280.234375 516.980469 L 296.675781 502.050781 C 298.960938 502.351562 301.066406 502.699219 303.167969 502.914062 C 318.820312 504.554688 334.476562 506.253906 350.121094 507.726562 C 356.125 508.300781 362.117188 508.285156 368.117188 508.671875 C 369.03125 508.734375 370.199219 509.332031 370.882812 510.039062 C 381.449219 521.0625 391.824219 532.273438 402.511719 543.1875 C 408.917969 549.730469 415.78125 555.816406 422.4375 562.113281 C 422.894531 562.546875 423.328125 563.003906 424.007812 563.667969 Z M 424.007812 563.667969 " clip-rule="nonzero"/></clipPath><clipPath id="id63"><path d="M 131 355.910156 L 417 355.910156 L 417 659 L 131 659 Z M 131 355.910156 " clip-rule="nonzero"/></clipPath><clipPath id="id64"><path d="M 416.621094 606.617188 C 411.144531 611.59375 405.660156 616.570312 400.179688 621.550781 C 391.5 629.433594 382.191406 636.589844 372.074219 642.800781 C 361.5 649.289062 350.242188 654.515625 337.78125 657.136719 C 333.972656 657.9375 330.152344 658.488281 326.328125 658.695312 C 317.328125 659.179688 308.304688 657.746094 299.324219 653.117188 C 289.054688 647.828125 281.589844 639.554688 275.648438 629.777344 C 269.089844 618.988281 264.601562 607.488281 262.148438 595.492188 C 260.011719 585.113281 258.082031 574.648438 257.015625 564.230469 C 255.316406 547.621094 255.769531 531.15625 257.160156 514.839844 C 257.308594 513.105469 257.054688 512.308594 255.027344 511.828125 C 229.90625 505.855469 205.453125 497.433594 182.375 484.226562 C 168.453125 476.273438 155.539062 466.898438 145.179688 454.1875 C 137.742188 445.058594 132.660156 435.050781 131.542969 423.570312 C 130.554688 413.304688 133.074219 404.15625 137.488281 395.617188 C 142.488281 385.964844 149.265625 377.964844 157.035156 370.90625 C 158.953125 369.167969 160.871094 367.425781 162.792969 365.683594 C 166.351562 362.449219 169.917969 359.210938 173.476562 355.976562 C 165.707031 363.03125 158.933594 371.035156 153.933594 380.6875 C 149.519531 389.222656 147 398.371094 147.988281 408.636719 C 149.101562 420.117188 154.183594 430.128906 161.625 439.253906 C 171.980469 451.96875 184.898438 461.34375 198.816406 469.296875 C 221.898438 482.503906 246.347656 490.925781 271.472656 496.894531 C 273.5 497.378906 273.753906 498.171875 273.605469 499.910156 C 272.210938 516.222656 271.761719 532.691406 273.460938 549.300781 C 274.523438 559.71875 276.453125 570.183594 278.589844 580.5625 C 281.042969 592.554688 285.53125 604.058594 292.09375 614.847656 C 298.035156 624.625 305.5 632.898438 315.765625 638.1875 C 324.75 642.816406 333.769531 644.25 342.769531 643.765625 C 346.59375 643.558594 350.414062 643.007812 354.226562 642.207031 C 366.683594 639.585938 377.941406 634.359375 388.515625 627.867188 C 398.632812 621.65625 407.945312 614.5 416.621094 606.617188 Z M 416.621094 606.617188 " clip-rule="nonzero"/></clipPath></defs><g clip-path="url(#id1)"><g clip-path="url(#id2)"><path fill="#327182" d="M 530.269531 294.4375 L 513.828125 309.371094 C 513.96875 308.585938 514.074219 308.152344 514.109375 307.707031 C 515.507812 289.683594 515.445312 271.503906 513.039062 253.179688 C 512.128906 246.207031 510.605469 239.222656 509.007812 232.300781 C 506.765625 222.652344 503.378906 213.285156 497.878906 204.683594 C 490.160156 192.601562 482.078125 188.589844 471.253906 189.171875 C 469.996094 189.238281 468.699219 189.371094 467.363281 189.554688 C 457.476562 190.941406 448.695312 194.976562 440.390625 199.875 L 456.832031 184.941406 C 465.136719 180.042969 473.917969 176.007812 483.804688 174.625 C 485.144531 174.4375 486.4375 174.304688 487.695312 174.238281 C 498.523438 173.65625 506.605469 177.667969 514.320312 189.75 C 519.824219 198.355469 523.207031 207.71875 525.449219 217.367188 C 527.046875 224.292969 528.574219 231.273438 529.484375 238.246094 C 531.882812 256.570312 531.949219 274.746094 530.550781 292.773438 C 530.515625 293.21875 530.410156 293.652344 530.269531 294.4375 " fill-opacity="1" fill-rule="nonzero"/></g></g><g clip-path="url(#id3)"><g clip-path="url(#id4)"><path fill="#327182" d="M 651.960938 401.929688 L 635.519531 416.863281 C 642.320312 404.449219 640.519531 393.363281 629.953125 381.988281 C 623.027344 374.535156 614.914062 368.75 606.28125 363.710938 C 586.140625 351.960938 564.757812 344.488281 542.847656 338.832031 C 540.011719 338.097656 537.167969 337.460938 534.257812 336.757812 L 550.695312 321.824219 C 553.609375 322.53125 556.453125 323.164062 559.289062 323.898438 C 581.199219 329.554688 602.585938 337.027344 622.722656 348.777344 C 631.351562 353.816406 639.464844 359.601562 646.394531 367.054688 C 656.960938 378.429688 658.761719 389.515625 651.960938 401.929688 " fill-opacity="1" fill-rule="nonzero"/></g></g><g clip-path="url(#id5)"><g clip-path="url(#id6)"><path fill="#327182" d="M 636.210938 421.371094 L 619.769531 436.304688 C 625.949219 430.691406 631.398438 424.382812 635.519531 416.863281 L 651.960938 401.929688 C 647.839844 409.449219 642.390625 415.761719 636.210938 421.371094 " fill-opacity="1" fill-rule="nonzero"/></g></g><g clip-path="url(#id7)"><g clip-path="url(#id8)"><path fill="#327182" d="M 456.828125 184.941406 L 440.390625 199.875 C 430.519531 205.707031 421.554688 212.550781 413.214844 220.125 L 429.65625 205.191406 C 437.996094 197.617188 446.960938 190.777344 456.828125 184.941406 " fill-opacity="1" fill-rule="nonzero"/></g></g><g clip-path="url(#id9)"><g clip-path="url(#id10)"><path fill="#327182" d="M 528.25 316.820312 L 511.808594 331.753906 C 494.789062 329.703125 478.507812 327.734375 461.894531 325.722656 L 478.335938 310.789062 C 494.953125 312.800781 511.230469 314.769531 528.25 316.820312 " fill-opacity="1" fill-rule="nonzero"/></g></g><g clip-path="url(#id11)"><g clip-path="url(#id12)"><path fill="#327182" d="M 385.71875 216.621094 L 369.277344 231.554688 C 372.039062 228.347656 374.691406 225.183594 377.421875 222.101562 C 383.664062 215.050781 390.179688 208.316406 397.089844 202.042969 L 413.53125 187.109375 C 406.621094 193.382812 400.105469 200.117188 393.863281 207.167969 C 391.136719 210.25 388.480469 213.414062 385.71875 216.621094 " fill-opacity="1" fill-rule="nonzero"/></g></g><g clip-path="url(#id13)"><g clip-path="url(#id14)"><path fill="#327182" d="M 518.449219 364.585938 L 502.007812 379.519531 C 505.261719 363.664062 508.457031 348.09375 511.808594 331.753906 L 528.25 316.820312 C 524.898438 333.164062 521.703125 348.730469 518.449219 364.585938 " fill-opacity="1" fill-rule="nonzero"/></g></g><g clip-path="url(#id15)"><g clip-path="url(#id16)"><path fill="#327182" d="M 427.574219 286.089844 L 411.132812 301.023438 C 399.414062 288.320312 387.28125 276.253906 374.015625 264.390625 L 390.457031 249.457031 C 403.722656 261.320312 415.855469 273.386719 427.574219 286.089844 " fill-opacity="1" fill-rule="nonzero"/></g></g><g clip-path="url(#id17)"><g clip-path="url(#id18)"><path fill="#327182" d="M 372.207031 234.113281 L 355.765625 249.046875 C 355.492188 248.703125 355.421875 248.558594 355.292969 248.46875 L 371.734375 233.535156 C 371.863281 233.625 371.933594 233.773438 372.207031 234.113281 " fill-opacity="1" fill-rule="nonzero"/></g></g><g clip-path="url(#id19)"><g clip-path="url(#id20)"><path fill="#327182" d="M 652.058594 439.582031 L 635.621094 454.511719 C 635.148438 454.941406 634.675781 455.363281 634.199219 455.785156 C 619.441406 468.867188 602.464844 478.671875 584.410156 486.847656 C 579.03125 489.292969 573.492188 491.445312 568.023438 493.734375 C 567.363281 494.007812 566.707031 494.308594 566.015625 494.613281 L 582.457031 479.679688 C 583.148438 479.375 583.804688 479.074219 584.464844 478.800781 C 589.933594 476.511719 595.472656 474.359375 600.851562 471.917969 C 618.90625 463.738281 635.882812 453.933594 650.640625 440.851562 C 651.117188 440.433594 651.589844 440.007812 652.058594 439.582031 " fill-opacity="1" fill-rule="nonzero"/></g></g><g clip-path="url(#id21)"><g clip-path="url(#id22)"><path fill="#327182" d="M 551.613281 464.742188 L 535.167969 479.671875 C 527.539062 463.738281 519.359375 448.488281 510.320312 433.625 L 526.761719 418.691406 C 535.804688 433.554688 543.980469 448.804688 551.613281 464.742188 " fill-opacity="1" fill-rule="nonzero"/></g></g><g clip-path="url(#id23)"><g clip-path="url(#id24)"><path fill="#327182" d="M 371.734375 233.535156 L 355.292969 248.46875 C 339.660156 236.085938 323.328125 224.875 305.699219 215.976562 C 290.847656 208.476562 275.683594 202.140625 259.375 201.371094 C 257.789062 201.292969 256.28125 201.292969 254.839844 201.371094 C 248.828125 201.695312 244.070312 203.386719 240.421875 206.699219 L 256.867188 191.765625 C 260.511719 188.453125 265.273438 186.761719 271.28125 186.4375 C 272.71875 186.359375 274.234375 186.363281 275.816406 186.4375 C 292.125 187.207031 307.289062 193.546875 322.140625 201.042969 C 339.769531 209.941406 356.101562 221.148438 371.734375 233.535156 " fill-opacity="1" fill-rule="nonzero"/></g></g><g clip-path="url(#id25)"><g clip-path="url(#id26)"><path fill="#327182" d="M 336.1875 292.292969 L 319.746094 307.226562 C 320.464844 306.570312 321.101562 305.738281 321.695312 304.6875 C 329.15625 291.441406 336.921875 278.398438 344.78125 265.414062 C 348.175781 259.808594 352.0625 254.527344 355.761719 249.046875 L 372.207031 234.113281 C 368.503906 239.59375 364.617188 244.875 361.222656 250.484375 C 353.363281 263.464844 345.597656 276.507812 338.136719 289.753906 C 337.542969 290.804688 336.90625 291.640625 336.1875 292.292969 " fill-opacity="1" fill-rule="nonzero"/></g></g><g clip-path="url(#id27)"><g clip-path="url(#id28)"><path fill="#327182" d="M 475.160156 479.683594 L 458.71875 494.617188 C 459.171875 494.207031 459.542969 493.65625 459.882812 492.945312 C 472.695312 465.8125 483.890625 437.890625 493.101562 408.996094 C 493.566406 407.558594 493.371094 406.515625 492.484375 405.1875 C 474.46875 378.105469 455.097656 351.984375 434.144531 326.984375 C 432.675781 325.238281 431.183594 324.535156 429.171875 324.546875 C 419.257812 324.621094 409.296875 324.378906 399.4375 324.800781 C 396.730469 324.917969 394.027344 325.054688 391.328125 325.199219 C 380.027344 325.808594 368.757812 326.628906 357.480469 327.441406 C 351.039062 327.90625 344.667969 328.789062 338.257812 329.445312 C 337.105469 329.558594 336.226562 329.910156 335.519531 330.550781 L 351.960938 315.617188 C 352.667969 314.976562 353.546875 314.625 354.699219 314.511719 C 361.109375 313.855469 367.480469 312.972656 373.925781 312.507812 C 385.199219 311.695312 396.46875 310.875 407.769531 310.265625 C 410.472656 310.121094 413.171875 309.988281 415.878906 309.867188 C 425.742188 309.445312 435.699219 309.6875 445.617188 309.613281 C 447.628906 309.605469 449.121094 310.304688 450.585938 312.050781 C 471.539062 337.054688 490.910156 363.171875 508.925781 390.253906 C 509.808594 391.582031 510.007812 392.625 509.542969 394.0625 C 500.332031 422.957031 489.136719 450.882812 476.324219 478.011719 C 475.988281 478.726562 475.617188 479.273438 475.160156 479.683594 " fill-opacity="1" fill-rule="nonzero"/></g></g><g clip-path="url(#id29)"><g clip-path="url(#id30)"><path fill="#327182" d="M 579.777344 570.230469 L 563.335938 585.164062 C 562.828125 573.179688 561.921875 561.261719 559.597656 549.269531 C 556.566406 533.726562 551.523438 518.691406 545.71875 503.773438 C 545.191406 502.417969 544.664062 501.925781 543.703125 501.980469 C 543.460938 501.992188 543.1875 502.039062 542.882812 502.117188 C 530.632812 505.199219 518.4375 508.453125 506.085938 511.203125 C 496.90625 513.238281 487.550781 514.707031 478.207031 516.175781 C 476.707031 516.410156 475.613281 516.839844 474.71875 517.652344 L 491.160156 502.71875 C 492.054688 501.90625 493.148438 501.476562 494.648438 501.246094 C 503.996094 499.773438 513.347656 498.304688 522.527344 496.269531 C 534.878906 493.519531 547.074219 490.265625 559.324219 487.183594 C 559.632812 487.109375 559.902344 487.058594 560.144531 487.046875 C 561.105469 486.996094 561.632812 487.484375 562.160156 488.839844 C 567.96875 503.757812 573.011719 518.792969 576.039062 534.339844 C 578.363281 546.328125 579.269531 558.246094 579.777344 570.230469 " fill-opacity="1" fill-rule="nonzero"/></g></g><g clip-path="url(#id31)"><g clip-path="url(#id32)"><path fill="#327182" d="M 567.515625 605.289062 L 551.074219 620.222656 C 551.402344 619.925781 551.714844 619.601562 552.015625 619.253906 C 554.773438 616.03125 557.21875 612.421875 559.195312 608.621094 C 562.882812 601.507812 563.691406 593.53125 563.335938 585.164062 L 579.777344 570.230469 C 580.128906 578.597656 579.324219 586.574219 575.636719 593.6875 C 573.664062 597.492188 571.214844 601.097656 568.457031 604.320312 C 568.15625 604.667969 567.84375 604.992188 567.515625 605.289062 " fill-opacity="1" fill-rule="nonzero"/></g></g><g clip-path="url(#id33)"><g clip-path="url(#id34)"><path fill="#327182" d="M 447.484375 434.511719 L 431.042969 449.441406 C 424.066406 455.777344 414.917969 459.71875 404.71875 460.265625 C 404.578125 460.273438 404.441406 460.28125 404.304688 460.285156 C 378.832031 461.660156 353.714844 442.03125 349.539062 414.414062 C 347.085938 398.148438 352.625 383.929688 362.769531 374.71875 L 379.210938 359.789062 C 369.066406 368.996094 363.527344 383.214844 365.980469 399.480469 C 370.160156 427.101562 395.273438 446.726562 420.746094 445.355469 C 420.886719 445.347656 421.023438 445.339844 421.160156 445.332031 C 431.359375 444.785156 440.507812 440.847656 447.484375 434.511719 " fill-opacity="1" fill-rule="nonzero"/></g></g><g clip-path="url(#id35)"><g clip-path="url(#id36)"><path fill="#327182" d="M 322.929688 319.140625 L 306.484375 334.074219 C 290.886719 337.742188 275.59375 341.347656 259.550781 345.121094 L 275.992188 330.1875 C 292.035156 326.417969 307.332031 322.808594 322.929688 319.140625 " fill-opacity="1" fill-rule="nonzero"/></g></g><g clip-path="url(#id37)"><g clip-path="url(#id38)"><path fill="#327182" d="M 245.863281 315.378906 L 229.421875 330.308594 C 227.953125 326.425781 226.488281 322.621094 225.070312 318.800781 C 220.203125 305.675781 215.839844 292.417969 213.136719 278.859375 C 211.339844 269.84375 209.582031 260.785156 208.628906 251.738281 C 207.019531 236.667969 207.425781 221.835938 212.175781 207.890625 C 214.800781 200.179688 218.679688 193.691406 224.117188 188.75 L 240.558594 173.820312 C 235.121094 178.757812 231.242188 185.25 228.617188 192.957031 C 223.867188 206.898438 223.460938 221.734375 225.070312 236.804688 C 226.027344 245.851562 227.78125 254.910156 229.578125 263.925781 C 232.28125 277.488281 236.644531 290.742188 241.511719 303.867188 C 242.929688 307.6875 244.394531 311.492188 245.863281 315.378906 " fill-opacity="1" fill-rule="nonzero"/></g></g><g clip-path="url(#id39)"><g clip-path="url(#id40)"><path fill="#327182" d="M 300.171875 376.21875 L 283.730469 391.152344 C 291.394531 371.914062 298.832031 353.269531 306.484375 334.074219 L 322.929688 319.140625 C 315.273438 338.335938 307.835938 356.980469 300.171875 376.21875 " fill-opacity="1" fill-rule="nonzero"/></g></g><g clip-path="url(#id41)"><g clip-path="url(#id42)"><path fill="#327182" d="M 437.300781 546.066406 L 420.859375 561 C 429.921875 547.859375 438.230469 534.597656 445.65625 520.640625 L 462.097656 505.710938 C 454.675781 519.664062 446.363281 532.929688 437.300781 546.066406 " fill-opacity="1" fill-rule="nonzero"/></g></g><g clip-path="url(#id43)"><g clip-path="url(#id44)"><path fill="#327182" d="M 462.097656 505.710938 L 445.65625 520.640625 C 424.710938 521.769531 404.125 522.878906 383.105469 524.011719 L 399.546875 509.078125 C 420.566406 507.945312 441.152344 506.835938 462.097656 505.710938 " fill-opacity="1" fill-rule="nonzero"/></g></g><g clip-path="url(#id45)"><g clip-path="url(#id46)"><path fill="#327182" d="M 585.671875 621.792969 L 569.226562 636.726562 C 566.429688 639.265625 563.199219 641.429688 559.472656 643.140625 C 553.996094 645.65625 548.167969 646.949219 542.078125 647.273438 C 540.128906 647.382812 538.152344 647.386719 536.152344 647.304688 C 515.453125 646.425781 496.214844 638.632812 477.46875 628.738281 C 460.335938 619.707031 444.351562 608.691406 429.097656 596.460938 C 428.402344 595.90625 427.707031 595.375 426.992188 594.855469 L 443.433594 579.921875 C 444.148438 580.445312 444.847656 580.972656 445.542969 581.527344 C 460.792969 593.757812 476.777344 604.773438 493.910156 613.804688 C 512.660156 623.699219 531.898438 631.492188 552.59375 632.371094 C 554.59375 632.453125 556.574219 632.445312 558.519531 632.34375 C 564.613281 632.015625 570.441406 630.722656 575.914062 628.207031 C 579.640625 626.492188 582.871094 624.332031 585.671875 621.792969 " fill-opacity="1" fill-rule="nonzero"/></g></g><g clip-path="url(#id47)"><g clip-path="url(#id48)"><path fill="#327182" d="M 443.433594 579.921875 L 426.992188 594.855469 C 425.859375 595.679688 424.808594 596.550781 423.820312 597.449219 L 440.261719 582.515625 C 441.253906 581.617188 442.300781 580.746094 443.433594 579.921875 " fill-opacity="1" fill-rule="nonzero"/></g></g><g clip-path="url(#id49)"><g clip-path="url(#id50)"><path fill="#327182" d="M 348.753906 484.664062 L 332.3125 499.597656 C 318.988281 481.734375 305.855469 464.128906 292.183594 445.796875 L 308.625 430.867188 C 322.300781 449.195312 335.429688 466.800781 348.753906 484.664062 " fill-opacity="1" fill-rule="nonzero"/></g></g><g clip-path="url(#id51)"><g clip-path="url(#id52)"><path fill="#327182" d="M 417.753906 570.980469 L 401.3125 585.914062 C 403.359375 583.488281 405.4375 581.078125 407.566406 578.601562 L 424.007812 563.667969 C 421.878906 566.148438 419.804688 568.554688 417.753906 570.980469 " fill-opacity="1" fill-rule="nonzero"/></g></g><g clip-path="url(#id53)"><g clip-path="url(#id54)"><path fill="#327182" d="M 401.15625 588.230469 L 384.714844 603.164062 C 390.597656 597.820312 396.117188 592.050781 401.3125 585.914062 L 417.753906 570.980469 C 412.5625 577.117188 407.039062 582.886719 401.15625 588.230469 " fill-opacity="1" fill-rule="nonzero"/></g></g><g clip-path="url(#id55)"><g clip-path="url(#id56)"><path fill="#327182" d="M 255.308594 337.355469 L 238.867188 352.289062 C 235.257812 353.660156 231.875 354.890625 228.558594 356.238281 C 209.125 364.136719 190.714844 373.65625 174.996094 387.382812 C 174.375 387.925781 173.757812 388.472656 173.148438 389.027344 L 189.589844 374.09375 C 190.199219 373.539062 190.816406 372.992188 191.4375 372.449219 C 207.15625 358.722656 225.566406 349.203125 245 341.304688 C 248.320312 339.957031 251.699219 338.730469 255.308594 337.355469 " fill-opacity="1" fill-rule="nonzero"/></g></g><g clip-path="url(#id57)"><g clip-path="url(#id58)"><path fill="#327182" d="M 276.792969 472.734375 L 260.351562 487.664062 C 263.722656 464.828125 268.753906 442.53125 274.953125 420.601562 C 275.203125 419.710938 274.875 418.320312 274.332031 417.433594 C 261.660156 396.996094 250.289062 375.933594 239.984375 354.355469 C 239.664062 353.679688 239.269531 353.027344 238.867188 352.289062 L 255.308594 337.355469 C 255.710938 338.097656 256.109375 338.746094 256.429688 339.421875 C 266.730469 361.003906 278.101562 382.058594 290.773438 402.5 C 291.320312 403.386719 291.648438 404.777344 291.394531 405.667969 C 285.195312 427.597656 280.167969 449.894531 276.792969 472.734375 " fill-opacity="1" fill-rule="nonzero"/></g></g><g clip-path="url(#id59)"><g clip-path="url(#id60)"><path fill="#327182" d="M 276.355469 474.679688 L 259.914062 489.613281 C 260.09375 488.808594 260.265625 488.246094 260.351562 487.667969 L 276.792969 472.734375 C 276.710938 473.316406 276.535156 473.875 276.355469 474.679688 " fill-opacity="1" fill-rule="nonzero"/></g></g><g clip-path="url(#id61)"><g clip-path="url(#id62)"><path fill="#327182" d="M 424.007812 563.667969 L 407.566406 578.601562 C 406.886719 577.9375 406.453125 577.480469 405.996094 577.042969 C 399.339844 570.746094 392.476562 564.664062 386.070312 558.121094 C 375.382812 547.207031 365.007812 535.996094 354.441406 524.972656 C 353.757812 524.261719 352.589844 523.667969 351.675781 523.605469 C 345.675781 523.21875 339.683594 523.230469 333.679688 522.660156 C 318.03125 521.1875 302.378906 519.484375 286.726562 517.847656 C 284.625 517.632812 282.519531 517.285156 280.234375 516.980469 L 296.675781 502.050781 C 298.960938 502.351562 301.066406 502.699219 303.167969 502.914062 C 318.820312 504.554688 334.476562 506.253906 350.121094 507.726562 C 356.125 508.296875 362.117188 508.285156 368.117188 508.671875 C 369.03125 508.734375 370.199219 509.332031 370.882812 510.039062 C 381.449219 521.0625 391.824219 532.273438 402.511719 543.1875 C 408.917969 549.730469 415.78125 555.816406 422.4375 562.113281 C 422.894531 562.546875 423.328125 563.003906 424.007812 563.667969 " fill-opacity="1" fill-rule="nonzero"/></g></g><path fill="#5bcceb" d="M 670.414062 362.6875 C 679.835938 377.277344 681.253906 392.070312 675.707031 406.910156 C 670.53125 420.734375 661.3125 431.394531 650.644531 440.851562 C 635.882812 453.933594 618.90625 463.738281 600.855469 471.914062 C 595.472656 474.359375 589.933594 476.511719 584.46875 478.800781 C 583.804688 479.074219 583.148438 479.375 582.457031 479.679688 C 584.421875 485.070312 586.554688 490.28125 588.210938 495.589844 C 591.179688 505.121094 594.234375 514.660156 596.578125 524.292969 C 598.734375 533.183594 600.472656 542.195312 601.550781 551.167969 C 603.632812 568.410156 603.605469 585.414062 598.21875 601.414062 C 594.210938 613.3125 587.453125 622.902344 575.914062 628.207031 C 570.4375 630.722656 564.609375 632.011719 558.519531 632.339844 C 556.570312 632.445312 554.589844 632.453125 552.589844 632.367188 C 531.894531 631.488281 512.65625 623.695312 493.910156 613.800781 C 476.777344 604.769531 460.789062 593.753906 445.539062 581.527344 C 444.84375 580.972656 444.144531 580.441406 443.433594 579.921875 C 439.511719 582.773438 436.589844 586.175781 433.59375 589.5 C 420.289062 604.277344 405.546875 617.410156 388.511719 627.863281 C 377.941406 634.355469 366.679688 639.582031 354.222656 642.203125 C 350.410156 643.003906 346.589844 643.554688 342.765625 643.761719 C 333.765625 644.246094 324.746094 642.8125 315.765625 638.183594 C 305.496094 632.894531 298.03125 624.617188 292.089844 614.84375 C 285.527344 604.054688 281.039062 592.550781 278.585938 580.558594 C 276.453125 570.179688 274.519531 559.714844 273.457031 549.296875 C 271.757812 532.6875 272.207031 516.21875 273.601562 499.90625 C 273.75 498.167969 273.496094 497.375 271.46875 496.890625 C 246.34375 490.921875 221.894531 482.5 198.8125 469.292969 C 184.894531 461.339844 171.976562 451.964844 161.621094 439.25 C 154.183594 430.125 149.097656 420.113281 147.984375 408.632812 C 146.996094 398.367188 149.515625 389.21875 153.929688 380.683594 C 161.257812 366.53125 172.40625 355.933594 184.90625 346.652344 C 202.667969 333.464844 222.625 324.011719 243.5625 316.261719 C 244.242188 316.015625 244.914062 315.746094 245.863281 315.378906 C 244.394531 311.492188 242.929688 307.6875 241.511719 303.867188 C 236.644531 290.742188 232.285156 277.488281 229.578125 263.925781 C 227.785156 254.910156 226.027344 245.851562 225.070312 236.804688 C 223.460938 221.734375 223.867188 206.902344 228.617188 192.957031 C 233.164062 179.613281 241.460938 169.921875 255.109375 165.601562 C 259.359375 164.257812 263.691406 163.539062 268.078125 163.300781 C 274.9375 162.933594 281.933594 163.742188 288.992188 165.179688 C 305.632812 168.554688 321.296875 175.359375 336.515625 183.621094 C 353.058594 192.585938 368.648438 203.179688 383.488281 215.011719 C 384.171875 215.550781 384.898438 216.035156 385.71875 216.621094 C 388.480469 213.414062 391.136719 210.25 393.863281 207.167969 C 408.75 190.355469 425.1875 175.339844 444.8125 164.0625 C 454.625 158.421875 465.054688 154.039062 476.558594 152.046875 C 481.386719 151.339844 485.304688 151.128906 489.226562 150.917969 C 492.085938 151.339844 494.964844 151.640625 497.804688 152.203125 C 510.488281 154.746094 520.523438 161.953125 528.679688 172.375 C 536.796875 182.742188 541.851562 194.425781 545.65625 206.613281 C 549.175781 217.859375 551.398438 229.273438 552.679688 240.742188 C 554.675781 258.753906 554.886719 276.628906 553.605469 294.367188 C 553.511719 295.648438 553.457031 296.9375 553.414062 298.234375 C 560.433594 300.9375 567.207031 302.605469 573.929688 304.566406 C 596.429688 311.125 618.285156 319.664062 638.574219 332.710938 C 650.988281 340.695312 662.246094 350.023438 670.414062 362.6875 Z M 318.203125 404.890625 C 326.875 417.332031 335.132812 430.066406 344.21875 442.21875 C 354.957031 456.546875 366.382812 470.382812 377.558594 484.394531 C 378.066406 485.023438 379.09375 485.609375 379.84375 485.640625 C 384.023438 485.8125 388.199219 485.925781 392.355469 485.824219 C 403.613281 485.546875 414.859375 485.152344 430.371094 484.679688 C 441.578125 483.617188 456.953125 482.105469 472.355469 480.738281 C 474.398438 480.554688 475.472656 479.816406 476.324219 478.011719 C 489.136719 450.882812 500.332031 422.957031 509.542969 394.0625 C 510.007812 392.628906 509.8125 391.585938 508.925781 390.257812 C 490.910156 363.175781 471.539062 337.054688 450.585938 312.054688 C 449.117188 310.304688 447.628906 309.605469 445.617188 309.617188 C 435.699219 309.691406 425.742188 309.449219 415.878906 309.871094 C 413.171875 309.988281 410.472656 310.125 407.769531 310.269531 C 396.46875 310.878906 385.199219 311.699219 373.925781 312.511719 C 367.484375 312.972656 361.113281 313.855469 354.699219 314.515625 C 352.765625 314.707031 351.601562 315.558594 350.726562 317.351562 C 337.707031 344.21875 326.53125 371.980469 317.5625 400.820312 C 317.09375 402.335938 317.21875 403.480469 318.203125 404.890625 M 276.792969 472.734375 C 280.167969 449.894531 285.195312 427.597656 291.394531 405.667969 C 291.648438 404.777344 291.320312 403.386719 290.773438 402.5 C 278.101562 382.0625 266.730469 361.003906 256.429688 339.421875 C 256.109375 338.746094 255.710938 338.09375 255.308594 337.355469 C 251.703125 338.730469 248.320312 339.957031 245.003906 341.304688 C 225.566406 349.203125 207.15625 358.722656 191.4375 372.449219 C 183.800781 379.121094 176.992188 386.53125 172.972656 396.199219 C 171.019531 400.886719 169.609375 405.910156 171.339844 411.25 C 174.738281 421.773438 180.910156 430.722656 190.050781 437.328125 C 196.074219 441.675781 202.410156 445.582031 208.777344 449.34375 C 229.300781 461.453125 251.132812 469.070312 273.648438 474.195312 C 274.53125 474.398438 275.417969 474.519531 276.355469 474.679688 C 276.535156 473.875 276.710938 473.316406 276.792969 472.734375 M 651.960938 401.929688 C 658.761719 389.515625 656.964844 378.429688 646.394531 367.054688 C 639.46875 359.601562 631.351562 353.816406 622.71875 348.777344 C 602.585938 337.027344 581.199219 329.554688 559.289062 323.898438 C 556.453125 323.164062 553.609375 322.53125 550.695312 321.824219 C 550.496094 322.769531 550.324219 323.410156 550.226562 324.066406 C 546.878906 345.875 542.074219 367.222656 535.945312 388.136719 C 535.375 390.074219 535.695312 391.511719 536.824219 393.265625 C 546.730469 408.628906 555.777344 424.429688 564.113281 440.601562 C 566.992188 446.183594 569.773438 451.8125 572.667969 457.570312 C 573.140625 457.453125 573.363281 457.433594 573.566406 457.351562 C 593.808594 449.667969 612.929688 440.09375 629.785156 426.792969 C 638.59375 419.847656 646.460938 411.96875 651.960938 401.929688 M 247.976562 238.109375 C 250.132812 258.210938 255.523438 277.855469 262.660156 297.210938 C 264.046875 300.96875 265.554688 304.679688 267.027344 308.5 C 268.382812 308.136719 269.441406 307.867188 270.5 307.558594 C 290.4375 301.902344 310.726562 297.34375 331.476562 294.3125 C 334.59375 293.851562 336.523438 292.621094 338.136719 289.75 C 345.601562 276.503906 353.363281 263.464844 361.222656 250.484375 C 364.621094 244.875 368.503906 239.59375 372.207031 234.113281 C 371.9375 233.773438 371.863281 233.625 371.734375 233.535156 C 356.105469 221.152344 339.769531 209.941406 322.140625 201.042969 C 307.292969 193.542969 292.128906 187.207031 275.816406 186.4375 C 274.234375 186.363281 272.722656 186.359375 271.28125 186.4375 C 260.613281 187.011719 253.886719 191.894531 250.324219 202.507812 C 246.519531 213.84375 246.675781 225.917969 247.976562 238.109375 M 456.828125 184.941406 C 436.179688 197.152344 419.492188 213.765625 404.191406 232.285156 C 404.683594 232.761719 405.015625 233.097656 405.359375 233.425781 C 413.363281 241.09375 421.589844 248.558594 429.339844 256.492188 C 438.609375 265.984375 447.453125 275.886719 456.550781 285.546875 C 457.253906 286.296875 458.523438 286.859375 459.515625 286.929688 C 465.296875 287.371094 471.070312 287.398438 476.839844 288.015625 C 492.039062 289.644531 507.242188 291.503906 522.441406 293.300781 C 525.054688 293.613281 527.675781 294.0625 530.269531 294.4375 C 530.410156 293.648438 530.515625 293.21875 530.550781 292.773438 C 531.949219 274.746094 531.882812 256.570312 529.484375 238.242188 C 528.570312 231.273438 527.046875 224.292969 525.449219 217.367188 C 523.207031 207.71875 519.824219 198.351562 514.320312 189.75 C 506.605469 177.667969 498.523438 173.65625 487.695312 174.238281 C 486.4375 174.304688 485.144531 174.4375 483.804688 174.625 C 473.917969 176.007812 465.136719 180.042969 456.828125 184.941406 M 417.753906 570.980469 C 419.804688 568.554688 421.878906 566.148438 424.007812 563.667969 C 423.328125 563.003906 422.894531 562.546875 422.4375 562.113281 C 415.78125 555.816406 408.917969 549.730469 402.511719 543.1875 C 391.824219 532.273438 381.449219 521.0625 370.882812 510.039062 C 370.199219 509.332031 369.03125 508.738281 368.117188 508.671875 C 362.117188 508.285156 356.125 508.300781 350.121094 507.726562 C 334.476562 506.253906 318.824219 504.554688 303.167969 502.914062 C 301.066406 502.699219 298.960938 502.351562 296.675781 502.050781 C 296.5 504.167969 296.335938 506.039062 296.191406 507.910156 C 294.847656 525.175781 295.007812 542.605469 297.441406 560.148438 C 298.527344 567.953125 300.328125 575.78125 302.398438 583.484375 C 304.6875 591.988281 308.097656 600.226562 313.4375 607.625 C 316.871094 612.367188 320.757812 616.765625 326.464844 618.507812 C 331.742188 620.125 336.976562 620.757812 342.125 620.480469 C 345.324219 620.308594 348.492188 619.785156 351.613281 618.925781 C 360.453125 616.5 368.058594 611.703125 375.726562 607.132812 C 391.832031 597.53125 405.671875 585.253906 417.753906 570.980469 M 579.777344 570.230469 C 579.269531 558.25 578.363281 546.332031 576.039062 534.339844 C 573.007812 518.792969 567.964844 503.757812 562.160156 488.839844 C 561.628906 487.484375 561.105469 486.996094 560.144531 487.046875 C 559.902344 487.058594 559.628906 487.109375 559.320312 487.183594 C 547.074219 490.265625 534.875 493.519531 522.527344 496.269531 C 513.347656 498.304688 503.992188 499.773438 494.648438 501.246094 C 492.28125 501.609375 490.929688 502.472656 489.769531 504.539062 C 481.628906 519 473.394531 533.394531 465.03125 547.710938 C 462.242188 552.488281 458.992188 556.96875 455.839844 561.75 C 456.535156 562.367188 456.980469 562.832031 457.492188 563.214844 C 463.25 567.539062 468.933594 572.007812 474.8125 576.152344 C 491.375 587.800781 508.628906 597.945312 527.496094 604.460938 C 536.375 607.542969 545.351562 609.75 554.445312 609.261719 C 554.960938 609.230469 555.476562 609.195312 555.992188 609.152344 C 560.660156 608.742188 565.386719 607.898438 568.457031 604.320312 C 571.214844 601.097656 573.664062 597.492188 575.636719 593.691406 C 579.324219 586.574219 580.128906 578.597656 579.777344 570.230469 M 526.761719 418.691406 C 519.179688 437.792969 511.691406 456.671875 504.089844 475.851562 C 520.226562 473.085938 535.9375 469.316406 551.613281 464.742188 C 543.980469 448.804688 535.804688 433.554688 526.761719 418.691406 M 348.753906 484.664062 C 335.429688 466.800781 322.296875 449.195312 308.625 430.867188 C 305.347656 447.128906 302.144531 463 298.878906 479.238281 C 315.894531 481.984375 332.296875 483.742188 348.753906 484.664062 M 478.335938 310.789062 C 491.859375 328.921875 504.945312 346.46875 518.449219 364.585938 C 521.703125 348.730469 524.898438 333.160156 528.25 316.820312 C 511.230469 314.769531 494.953125 312.800781 478.335938 310.789062 M 275.996094 330.1875 C 284.253906 345.910156 292.15625 360.953125 300.171875 376.222656 C 307.835938 356.980469 315.273438 338.335938 322.929688 319.140625 C 307.332031 322.808594 292.035156 326.417969 275.996094 330.1875 M 437.300781 546.066406 C 446.363281 532.929688 454.675781 519.664062 462.097656 505.710938 C 441.152344 506.839844 420.566406 507.945312 399.546875 509.078125 C 411.753906 522.007812 424.085938 534.347656 437.300781 546.066406 M 390.457031 249.457031 C 381.933594 262.847656 373.621094 275.898438 365.3125 288.960938 C 365.527344 289.109375 365.75 289.257812 365.964844 289.40625 C 386.40625 288.304688 406.839844 287.207031 427.574219 286.089844 C 415.855469 273.386719 403.722656 261.320312 390.457031 249.457031 " fill-opacity="1" fill-rule="nonzero"/><path fill="#5bcceb" d="M 405.949219 348.832031 C 431.113281 347.484375 456.507812 366.894531 460.710938 394.742188 C 464.871094 422.25 446.179688 443.988281 421.164062 445.335938 C 421.023438 445.34375 420.886719 445.347656 420.746094 445.355469 C 395.273438 446.726562 370.160156 427.101562 365.984375 399.480469 C 361.820312 371.886719 380.664062 350.183594 405.949219 348.832031 Z M 405.949219 348.832031 " fill-opacity="1" fill-rule="nonzero"/><g clip-path="url(#id63)"><g clip-path="url(#id64)"><path fill="#327182" d="M 416.621094 606.617188 L 400.179688 621.550781 C 391.5 629.433594 382.191406 636.589844 372.074219 642.800781 C 361.5 649.289062 350.242188 654.515625 337.78125 657.136719 C 333.972656 657.9375 330.152344 658.488281 326.328125 658.695312 C 317.328125 659.179688 308.304688 657.746094 299.324219 653.117188 C 289.054688 647.828125 281.589844 639.554688 275.648438 629.777344 C 269.089844 618.988281 264.601562 607.488281 262.148438 595.492188 C 260.011719 585.113281 258.082031 574.648438 257.015625 564.230469 C 255.316406 547.621094 255.769531 531.15625 257.160156 514.839844 C 257.308594 513.105469 257.054688 512.308594 255.027344 511.828125 C 229.90625 505.855469 205.453125 497.433594 182.375 484.226562 C 168.453125 476.273438 155.539062 466.898438 145.179688 454.1875 C 137.742188 445.058594 132.660156 435.050781 131.542969 423.570312 C 130.554688 413.304688 133.074219 404.15625 137.488281 395.617188 C 142.488281 385.964844 149.265625 377.964844 157.035156 370.910156 L 173.476562 355.976562 C 165.707031 363.03125 158.933594 371.03125 153.929688 380.6875 C 149.515625 389.222656 146.996094 398.371094 147.984375 408.636719 C 149.101562 420.117188 154.183594 430.128906 161.625 439.253906 C 171.980469 451.964844 184.894531 461.339844 198.816406 469.296875 C 221.898438 482.503906 246.347656 490.925781 271.472656 496.894531 C 273.5 497.378906 273.753906 498.171875 273.605469 499.910156 C 272.210938 516.222656 271.761719 532.691406 273.460938 549.296875 C 274.523438 559.71875 276.453125 570.179688 278.589844 580.5625 C 281.042969 592.554688 285.53125 604.058594 292.089844 614.847656 C 298.03125 624.621094 305.5 632.898438 315.765625 638.1875 C 324.75 642.816406 333.769531 644.25 342.769531 643.765625 C 346.59375 643.558594 350.414062 643.007812 354.222656 642.203125 C 366.683594 639.582031 377.941406 634.359375 388.515625 627.867188 C 398.632812 621.65625 407.945312 614.5 416.621094 606.617188 " fill-opacity="1" fill-rule="nonzero"/></g></g></svg>