<svg xmlns="http://www.w3.org/2000/svg" xmlns:xlink="http://www.w3.org/1999/xlink" width="1080" zoomAndPan="magnify" viewBox="0 0 810 809.999993" height="1080" preserveAspectRatio="xMidYMid meet" version="1.0"><defs><clipPath id="id1"><path d="M 638.480469 305.796875 L 663 305.796875 L 663 312.957031 L 638.480469 312.957031 Z M 638.480469 305.796875 " clip-rule="nonzero"/></clipPath><clipPath id="id2"><path d="M 662.574219 306.691406 L 638.488281 312.363281 C 638.515625 312.074219 638.539062 311.789062 638.570312 311.503906 L 662.660156 305.835938 C 662.628906 306.121094 662.605469 306.40625 662.574219 306.691406 Z M 662.574219 306.691406 " clip-rule="nonzero"/></clipPath><clipPath id="id3"><path d="M 638 306 L 663 306 L 663 312.957031 L 638 312.957031 Z M 638 306 " clip-rule="nonzero"/></clipPath><clipPath id="id4"><path d="M 662.519531 307.101562 L 638.433594 312.769531 C 638.445312 312.632812 638.464844 312.5 638.488281 312.363281 L 662.574219 306.695312 C 662.554688 306.832031 662.53125 306.960938 662.519531 307.101562 Z M 662.519531 307.101562 " clip-rule="nonzero"/></clipPath><clipPath id="id5"><path d="M 586.292969 320 L 652 320 L 652 354 L 586.292969 354 Z M 586.292969 320 " clip-rule="nonzero"/></clipPath><clipPath id="id6"><path d="M 610.390625 348.277344 C 602.363281 350.167969 594.332031 352.058594 586.304688 353.949219 C 601.785156 350.304688 616.355469 340.261719 628.765625 323.925781 C 631.761719 319.972656 635.1875 316.46875 638.433594 312.769531 L 662.519531 307.101562 C 659.273438 310.796875 655.847656 314.300781 652.851562 318.253906 C 640.441406 334.589844 625.871094 344.636719 610.390625 348.277344 Z M 610.390625 348.277344 " clip-rule="nonzero"/></clipPath><clipPath id="id7"><path d="M 626 316 L 654 316 L 654 327 L 626 327 Z M 626 316 " clip-rule="nonzero"/></clipPath><clipPath id="id8"><path d="M 610.390625 348.277344 C 602.363281 350.167969 594.332031 352.058594 586.304688 353.949219 C 601.785156 350.304688 616.355469 340.261719 628.765625 323.925781 C 631.761719 319.972656 635.1875 316.46875 638.433594 312.769531 L 662.519531 307.101562 C 659.273438 310.796875 655.847656 314.300781 652.851562 318.253906 C 640.441406 334.589844 625.871094 344.636719 610.390625 348.277344 Z M 610.390625 348.277344 " clip-rule="nonzero"/></clipPath><clipPath id="id9"><path d="M 629 307 L 663 307 L 663 323 L 629 323 Z M 629 307 " clip-rule="nonzero"/></clipPath><clipPath id="id10"><path d="M 610.390625 348.277344 C 602.363281 350.167969 594.332031 352.058594 586.304688 353.949219 C 601.785156 350.304688 616.355469 340.261719 628.765625 323.925781 C 631.761719 319.972656 635.1875 316.46875 638.433594 312.769531 L 662.519531 307.101562 C 659.273438 310.796875 655.847656 314.300781 652.851562 318.253906 C 640.441406 334.589844 625.871094 344.636719 610.390625 348.277344 Z M 610.390625 348.277344 " clip-rule="nonzero"/></clipPath><clipPath id="id11"><path d="M 318.191406 324.207031 L 576 324.207031 L 576 429 L 318.191406 429 Z M 318.191406 324.207031 " clip-rule="nonzero"/></clipPath><clipPath id="id12"><path d="M 575.050781 418.667969 C 567.019531 420.558594 558.992188 422.449219 550.960938 424.339844 C 541.265625 426.621094 531.710938 428.003906 522.3125 428.453125 C 481.328125 430.410156 443.242188 414.589844 408.648438 378.015625 C 401.699219 370.683594 394.542969 363.609375 387.347656 356.617188 C 368.570312 338.367188 348.375 329.777344 329.089844 330.699219 C 325.515625 330.867188 321.972656 331.363281 318.480469 332.1875 L 342.566406 326.519531 C 346.0625 325.695312 349.601562 325.199219 353.175781 325.027344 C 372.460938 324.109375 392.65625 332.699219 411.433594 350.949219 C 418.632812 357.9375 425.789062 365.011719 432.734375 372.347656 C 467.328125 408.917969 505.417969 424.738281 546.398438 422.785156 C 555.800781 422.335938 565.351562 420.953125 575.050781 418.667969 Z M 575.050781 418.667969 " clip-rule="nonzero"/></clipPath><clipPath id="id13"><path d="M 264 365.113281 L 293 365.113281 L 293 374 L 264 374 Z M 264 365.113281 " clip-rule="nonzero"/></clipPath><clipPath id="id14"><path d="M 292.957031 368.082031 L 268.871094 373.75 C 267.535156 372.90625 266.210938 372.070312 264.875 371.222656 L 288.964844 365.554688 C 290.296875 366.398438 291.625 367.238281 292.957031 368.082031 Z M 292.957031 368.082031 " clip-rule="nonzero"/></clipPath><clipPath id="id15"><path d="M 264 291 L 320 291 L 320 371.25 L 264 371.25 Z M 264 291 " clip-rule="nonzero"/></clipPath><clipPath id="id16"><path d="M 353.648438 261.546875 C 361.679688 259.65625 369.707031 257.765625 377.734375 255.875 C 344.203125 263.769531 317.898438 283.871094 302.5625 320.96875 C 296.738281 335.050781 293.421875 350.65625 288.964844 365.554688 L 264.875 371.226562 C 269.335938 356.328125 272.648438 340.722656 278.472656 326.636719 C 293.8125 289.542969 320.113281 269.441406 353.648438 261.546875 Z M 353.648438 261.546875 " clip-rule="nonzero"/></clipPath><clipPath id="id17"><path d="M 295 255.683594 L 378 255.683594 L 378 298 L 295 298 Z M 295 255.683594 " clip-rule="nonzero"/></clipPath><clipPath id="id18"><path d="M 353.648438 261.546875 C 361.679688 259.65625 369.707031 257.765625 377.734375 255.875 C 344.203125 263.769531 317.898438 283.871094 302.5625 320.96875 C 296.738281 335.050781 293.421875 350.65625 288.964844 365.554688 L 264.875 371.226562 C 269.335938 356.328125 272.648438 340.722656 278.472656 326.636719 C 293.8125 289.542969 320.113281 269.441406 353.648438 261.546875 Z M 353.648438 261.546875 " clip-rule="nonzero"/></clipPath><clipPath id="id19"><path d="M 475 503 L 540 503 L 540 536.929688 L 475 536.929688 Z M 475 503 " clip-rule="nonzero"/></clipPath><clipPath id="id20"><path d="M 499.625 530.910156 C 491.59375 532.800781 483.566406 534.691406 475.535156 536.578125 C 493.335938 532.390625 507.820312 520.550781 519.957031 503.148438 C 521.96875 500.261719 523.679688 497.09375 525.535156 494.058594 L 549.621094 488.390625 C 547.769531 491.425781 546.058594 494.589844 544.042969 497.476562 C 531.90625 514.878906 517.421875 526.71875 499.625 530.910156 Z M 499.625 530.910156 " clip-rule="nonzero"/></clipPath><clipPath id="id21"><path d="M 515 488 L 550 488 L 550 510 L 515 510 Z M 515 488 " clip-rule="nonzero"/></clipPath><clipPath id="id22"><path d="M 499.625 530.910156 C 491.59375 532.800781 483.566406 534.691406 475.535156 536.578125 C 493.335938 532.390625 507.820312 520.550781 519.957031 503.148438 C 521.96875 500.261719 523.679688 497.09375 525.535156 494.058594 L 549.621094 488.390625 C 547.769531 491.425781 546.058594 494.589844 544.042969 497.476562 C 531.90625 514.878906 517.421875 526.71875 499.625 530.910156 Z M 499.625 530.910156 " clip-rule="nonzero"/></clipPath><clipPath id="id23"><path d="M 206.652344 508 L 468 508 L 468 611.585938 L 206.652344 611.585938 Z M 206.652344 508 " clip-rule="nonzero"/></clipPath><clipPath id="id24"><path d="M 467.804688 600.855469 C 459.773438 602.746094 451.746094 604.632812 443.714844 606.523438 C 443.152344 606.65625 442.589844 606.78125 442.027344 606.90625 C 431.515625 609.164062 421.09375 610.644531 410.78125 611.136719 C 377.984375 612.699219 346.339844 604.25 316.796875 578.925781 C 301.734375 566.015625 288.109375 550.777344 273.3125 537.402344 C 254.816406 520.6875 235.550781 512.890625 217.269531 513.761719 C 213.753906 513.929688 210.277344 514.417969 206.847656 515.226562 L 230.933594 509.554688 C 234.363281 508.75 237.84375 508.261719 241.355469 508.09375 C 259.640625 507.21875 278.90625 515.019531 297.398438 531.730469 C 312.195312 545.105469 325.820312 560.34375 340.886719 573.253906 C 370.429688 598.578125 402.070312 607.03125 434.871094 605.464844 C 445.179688 604.972656 455.601562 603.492188 466.117188 601.234375 C 466.679688 601.113281 467.242188 600.984375 467.804688 600.855469 Z M 467.804688 600.855469 " clip-rule="nonzero"/></clipPath><clipPath id="id25"><path d="M 154 476 L 208 476 L 208 560.453125 L 154 560.453125 Z M 154 476 " clip-rule="nonzero"/></clipPath><clipPath id="id26"><path d="M 241.027344 444.882812 C 249.054688 442.992188 257.085938 441.101562 265.113281 439.210938 C 217.738281 450.363281 182.050781 495.714844 178.507812 554.574219 L 154.417969 560.246094 C 157.960938 501.382812 193.648438 456.035156 241.027344 444.882812 Z M 241.027344 444.882812 " clip-rule="nonzero"/></clipPath><clipPath id="id27"><path d="M 183 439 L 266 439 L 266 483 L 183 483 Z M 183 439 " clip-rule="nonzero"/></clipPath><clipPath id="id28"><path d="M 241.027344 444.882812 C 249.054688 442.992188 257.085938 441.101562 265.113281 439.210938 C 217.738281 450.363281 182.050781 495.714844 178.507812 554.574219 L 154.417969 560.246094 C 157.960938 501.382812 193.648438 456.035156 241.027344 444.882812 Z M 241.027344 444.882812 " clip-rule="nonzero"/></clipPath></defs><g clip-path="url(#id1)"><g clip-path="url(#id2)"><path fill="#045e6e" d="M 662.574219 306.691406 L 638.488281 312.363281 C 638.515625 312.074219 638.539062 311.789062 638.570312 311.503906 L 662.660156 305.835938 C 662.628906 306.121094 662.605469 306.40625 662.574219 306.691406 " fill-opacity="1" fill-rule="nonzero"/></g></g><g clip-path="url(#id3)"><g clip-path="url(#id4)"><path fill="#045e6e" d="M 662.519531 307.101562 L 638.433594 312.769531 C 638.445312 312.632812 638.464844 312.5 638.488281 312.363281 L 662.574219 306.695312 C 662.554688 306.832031 662.53125 306.960938 662.519531 307.101562 " fill-opacity="1" fill-rule="nonzero"/></g></g><path fill="#08afcc" d="M 662.660156 305.835938 C 662.695312 306.164062 662.726562 306.503906 662.757812 306.832031 C 662.683594 306.925781 662.59375 307.015625 662.519531 307.101562 C 662.535156 306.960938 662.554688 306.832031 662.574219 306.695312 C 662.605469 306.40625 662.628906 306.121094 662.660156 305.835938 Z M 662.660156 305.835938 " fill-opacity="1" fill-rule="nonzero"/><g clip-path="url(#id5)"><g clip-path="url(#id6)"><path fill="#046272" d="M 610.390625 348.277344 L 586.304688 353.949219 C 601.046875 350.476562 614.96875 341.203125 626.980469 326.210938 L 651.070312 320.539062 C 639.054688 335.53125 625.132812 344.808594 610.390625 348.277344 " fill-opacity="1" fill-rule="nonzero"/></g></g><g clip-path="url(#id7)"><g clip-path="url(#id8)"><path fill="#045e6e" d="M 651.070312 320.539062 L 626.980469 326.210938 C 627.582031 325.464844 628.175781 324.699219 628.765625 323.925781 C 629.117188 323.457031 629.476562 323 629.839844 322.546875 L 653.929688 316.875 C 653.566406 317.328125 653.207031 317.789062 652.851562 318.253906 C 652.261719 319.03125 651.667969 319.792969 651.070312 320.539062 " fill-opacity="1" fill-rule="nonzero"/></g></g><g clip-path="url(#id9)"><g clip-path="url(#id10)"><path fill="#046272" d="M 653.929688 316.875 L 629.839844 322.546875 C 632.566406 319.144531 635.570312 316.035156 638.433594 312.769531 L 662.519531 307.101562 C 659.65625 310.363281 656.652344 313.472656 653.929688 316.875 " fill-opacity="1" fill-rule="nonzero"/></g></g><g clip-path="url(#id11)"><g clip-path="url(#id12)"><path fill="#045e6e" d="M 575.050781 418.667969 L 550.960938 424.339844 C 541.265625 426.621094 531.710938 428.003906 522.3125 428.453125 C 481.328125 430.410156 443.242188 414.589844 408.648438 378.015625 C 401.699219 370.683594 394.542969 363.609375 387.347656 356.617188 C 368.570312 338.367188 348.375 329.777344 329.089844 330.699219 C 325.515625 330.867188 321.972656 331.363281 318.480469 332.1875 L 342.566406 326.519531 C 346.0625 325.695312 349.601562 325.199219 353.175781 325.027344 C 372.460938 324.109375 392.65625 332.699219 411.433594 350.949219 C 418.632812 357.9375 425.789062 365.011719 432.734375 372.347656 C 467.328125 408.917969 505.417969 424.738281 546.398438 422.785156 C 555.800781 422.335938 565.351562 420.953125 575.050781 418.667969 " fill-opacity="1" fill-rule="nonzero"/></g></g><g clip-path="url(#id13)"><g clip-path="url(#id14)"><path fill="#045e6e" d="M 292.957031 368.082031 L 268.871094 373.75 C 267.535156 372.90625 266.210938 372.070312 264.875 371.222656 L 288.964844 365.554688 C 290.296875 366.398438 291.625 367.238281 292.957031 368.082031 " fill-opacity="1" fill-rule="nonzero"/></g></g><g clip-path="url(#id15)"><g clip-path="url(#id16)"><path fill="#045e6e" d="M 288.964844 365.554688 L 264.875 371.226562 C 269.335938 356.328125 272.648438 340.722656 278.472656 326.636719 C 283.1875 315.238281 288.933594 305.445312 295.609375 297.121094 L 319.695312 291.449219 C 313.023438 299.777344 307.273438 309.570312 302.5625 320.96875 C 296.738281 335.050781 293.421875 350.65625 288.964844 365.554688 " fill-opacity="1" fill-rule="nonzero"/></g></g><g clip-path="url(#id17)"><g clip-path="url(#id18)"><path fill="#046272" d="M 319.695312 291.449219 L 295.605469 297.117188 C 310.65625 278.339844 330.417969 267.015625 353.648438 261.546875 L 377.734375 255.875 C 354.503906 261.34375 334.746094 272.671875 319.695312 291.449219 " fill-opacity="1" fill-rule="nonzero"/></g></g><path fill="#08afcc" d="M 599.804688 349.765625 C 619.195312 348.839844 637.644531 338.273438 652.851562 318.253906 C 655.847656 314.300781 659.273438 310.796875 662.519531 307.097656 C 656.09375 368.1875 623.554688 404.996094 583.503906 416.460938 C 570.890625 420.074219 558.519531 422.203125 546.398438 422.78125 C 505.417969 424.738281 467.328125 408.917969 432.734375 372.34375 C 425.789062 365.011719 418.632812 357.9375 411.433594 350.945312 C 392.65625 332.699219 372.460938 324.105469 353.175781 325.027344 C 333.304688 325.976562 314.402344 337.027344 299.039062 358.023438 C 296.769531 361.136719 294.976562 364.714844 292.957031 368.082031 C 291.625 367.238281 290.296875 366.398438 288.964844 365.554688 C 293.421875 350.65625 296.738281 335.050781 302.5625 320.964844 C 319.484375 280.039062 349.753906 259.796875 388.359375 253.8125 C 394.09375 252.925781 399.746094 252.347656 405.335938 252.082031 C 449.46875 249.976562 489.007812 267.402344 523.578125 305.804688 C 529.851562 312.777344 536.574219 319.238281 543.34375 325.550781 C 561.667969 342.640625 581.167969 350.65625 599.804688 349.765625 Z M 599.804688 349.765625 " fill-opacity="1" fill-rule="nonzero"/><g clip-path="url(#id19)"><g clip-path="url(#id20)"><path fill="#046272" d="M 499.625 530.910156 L 475.535156 536.578125 C 491.035156 532.929688 504.023438 523.480469 515.132812 509.605469 L 539.222656 503.9375 C 528.109375 517.8125 515.125 527.261719 499.625 530.910156 " fill-opacity="1" fill-rule="nonzero"/></g></g><g clip-path="url(#id21)"><g clip-path="url(#id22)"><path fill="#045e6e" d="M 539.222656 503.9375 L 515.132812 509.605469 C 516.78125 507.546875 518.390625 505.394531 519.957031 503.148438 C 521.96875 500.261719 523.679688 497.09375 525.535156 494.058594 L 549.621094 488.390625 C 547.769531 491.425781 546.058594 494.589844 544.042969 497.476562 C 542.476562 499.722656 540.871094 501.878906 539.222656 503.9375 " fill-opacity="1" fill-rule="nonzero"/></g></g><g clip-path="url(#id23)"><g clip-path="url(#id24)"><path fill="#045e6e" d="M 467.804688 600.855469 L 443.714844 606.523438 C 443.152344 606.65625 442.589844 606.78125 442.027344 606.90625 C 431.515625 609.164062 421.09375 610.644531 410.78125 611.136719 C 377.984375 612.699219 346.339844 604.25 316.796875 578.925781 C 301.734375 566.015625 288.109375 550.777344 273.3125 537.402344 C 254.816406 520.6875 235.550781 512.890625 217.269531 513.761719 C 213.753906 513.929688 210.277344 514.417969 206.847656 515.226562 L 230.933594 509.554688 C 234.363281 508.75 237.84375 508.261719 241.355469 508.09375 C 259.640625 507.21875 278.90625 515.019531 297.398438 531.730469 C 312.195312 545.105469 325.820312 560.34375 340.886719 573.253906 C 370.429688 598.578125 402.070312 607.03125 434.871094 605.464844 C 445.179688 604.972656 455.601562 603.492188 466.113281 601.234375 C 466.679688 601.113281 467.242188 600.984375 467.804688 600.855469 " fill-opacity="1" fill-rule="nonzero"/></g></g><g clip-path="url(#id25)"><g clip-path="url(#id26)"><path fill="#045e6e" d="M 178.507812 554.574219 L 154.417969 560.246094 C 156.261719 529.652344 166.785156 502.710938 183.121094 482.324219 L 207.207031 476.652344 C 190.875 497.042969 180.347656 523.984375 178.507812 554.574219 " fill-opacity="1" fill-rule="nonzero"/></g></g><g clip-path="url(#id27)"><g clip-path="url(#id28)"><path fill="#046272" d="M 207.207031 476.652344 L 183.121094 482.324219 C 198.214844 463.484375 218.273438 450.238281 241.027344 444.882812 L 265.113281 439.210938 C 242.359375 444.566406 222.304688 457.8125 207.207031 476.652344 " fill-opacity="1" fill-rule="nonzero"/></g></g><path fill="#08afcc" d="M 488.074219 532.515625 C 511.292969 531.40625 529.382812 518.503906 544.042969 497.476562 C 546.058594 494.589844 547.769531 491.425781 549.621094 488.390625 C 547.84375 544.832031 512 591.390625 466.113281 601.234375 C 455.601562 603.492188 445.179688 604.972656 434.871094 605.464844 C 402.070312 607.03125 370.429688 598.578125 340.886719 573.253906 C 325.824219 560.34375 312.195312 545.105469 297.398438 531.730469 C 278.90625 515.019531 259.640625 507.21875 241.355469 508.09375 C 220.984375 509.0625 201.832031 520.8125 186.359375 542.996094 C 183.972656 546.414062 181.664062 549.910156 178.503906 554.574219 C 182.222656 492.808594 221.339844 445.917969 272.214844 437.8125 C 279.675781 436.621094 287.078125 435.804688 294.421875 435.453125 C 324.535156 434.019531 353.589844 440.4375 380.832031 461.304688 C 397.246094 473.875 411.914062 489.6875 427.226562 504.257812 C 441.929688 518.253906 457.320312 530.011719 476.589844 532.132812 C 480.550781 532.566406 484.375 532.691406 488.074219 532.515625 Z M 488.074219 532.515625 " fill-opacity="1" fill-rule="nonzero"/></svg>